<?xml version="1.0" encoding="UTF-8" standalone="no"?>
<!-- Created with Inkscape (http://www.inkscape.org/) -->

<svg
   xmlns:dc="http://purl.org/dc/elements/1.1/"
   xmlns:cc="http://creativecommons.org/ns#"
   xmlns:rdf="http://www.w3.org/1999/02/22-rdf-syntax-ns#"
   xmlns:svg="http://www.w3.org/2000/svg"
   xmlns="http://www.w3.org/2000/svg"
   xmlns:sodipodi="http://sodipodi.sourceforge.net/DTD/sodipodi-0.dtd"
   xmlns:inkscape="http://www.inkscape.org/namespaces/inkscape"
   width="744.09448819"
   height="1052.3622047"
   id="svg4657"
   version="1.1"
   inkscape:version="0.48.3.1 r9886"
   sodipodi:docname="yourcodestinks-017-compromise.svg"
   inkscape:export-filename="/home/yals/Desktop/sandbox/yourcodestinks/en/yourcodestinks-017-compromise.png"
   inkscape:export-xdpi="45"
   inkscape:export-ydpi="45">
  <defs
     id="defs4659" />
  <sodipodi:namedview
     id="base"
     pagecolor="#ffffff"
     bordercolor="#666666"
     borderopacity="1.0"
     inkscape:pageopacity="0.0"
     inkscape:pageshadow="2"
     inkscape:zoom="0.175"
     inkscape:cx="375"
     inkscape:cy="541.27373"
     inkscape:document-units="px"
     inkscape:current-layer="layer1"
     showgrid="false"
     inkscape:window-width="1244"
     inkscape:window-height="778"
     inkscape:window-x="0"
     inkscape:window-y="0"
     inkscape:window-maximized="1" />
  <metadata
     id="metadata4662">
    <rdf:RDF>
      <cc:Work
         rdf:about="">
        <dc:format>image/svg+xml</dc:format>
        <dc:type
           rdf:resource="http://purl.org/dc/dcmitype/StillImage" />
        <dc:title></dc:title>
      </cc:Work>
    </rdf:RDF>
  </metadata>
  <g
     inkscape:label="Layer 1"
     inkscape:groupmode="layer"
     id="layer1">
    <rect
       style="fill:#ffffff;fill-opacity:1;stroke:#ffffff;stroke-width:11.50000095000000044;stroke-linecap:round;stroke-linejoin:round;stroke-miterlimit:4;stroke-opacity:1;stroke-dasharray:none;stroke-dashoffset:0"
       id="rect5046"
       width="1462.8572"
       height="3285.7146"
       x="-356.57144"
       y="-1111.3521" />
    <rect
       style="fill:#ffffff;fill-opacity:1;stroke:#000000;stroke-width:9.13505077;stroke-linecap:round;stroke-linejoin:round;stroke-miterlimit:4;stroke-opacity:1;stroke-dasharray:none"
       id="rect5187-8-6-7-7"
       width="1389.4364"
       height="1008.2181"
       x="-318.69818"
       y="-944.8042" />
    <path
       inkscape:connector-curvature="0"
       style="fill:#fffcfc;fill-opacity:1;stroke:#000000;stroke-width:10.4811945;stroke-linecap:butt;stroke-linejoin:miter;stroke-miterlimit:4;stroke-opacity:1;stroke-dasharray:none"
       d="m 172.11676,-292.24346 c 23.2476,21.2266 40.1894,212.804303 9.6864,242.590083 -25.8321,25.2249 -195.194796,33.4112 -261.534696,-1.0107 -23.689704,-12.2919 -9.189,-224.553683 9.6864,-236.525383 24.6951,-15.663 215.039696,-21.2267 242.161896,-5.054 z"
       id="path2822-5-1-6-4-4-6-2"
       sodipodi:nodetypes="csssc" />
    <path
       inkscape:connector-curvature="0"
       style="fill:none;stroke:#000000;stroke-width:9.79550934;stroke-linecap:butt;stroke-linejoin:miter;stroke-miterlimit:4;stroke-opacity:1;stroke-dasharray:none"
       d="m 135.91186,-37.741277 30.9967,52.5612"
       id="path3756-13-6-8-8-3-3"
       sodipodi:nodetypes="cc" />
    <path
       inkscape:connector-curvature="0"
       style="fill:none;stroke:#000000;stroke-width:9.71725368;stroke-linecap:butt;stroke-linejoin:miter;stroke-miterlimit:4;stroke-opacity:1;stroke-dasharray:none"
       d="m -30.559836,-35.759677 -29.3307,54.6627"
       id="path3756-1-8-4-7-7-9-6"
       sodipodi:nodetypes="cc" />
    <path
       sodipodi:type="arc"
       style="fill:#000000;fill-opacity:1;stroke:none"
       id="path3598-4-7-9-1-1-4-5"
       sodipodi:cx="19.192898"
       sodipodi:cy="425.05746"
       sodipodi:rx="38.385796"
       sodipodi:ry="18.182745"
       d="m 57.578693,425.05746 a 38.385796,18.182745 0 1 1 -76.771591,0 38.385796,18.182745 0 1 1 76.771591,0 z"
       transform="matrix(0.00213942,1.0000945,0.95940501,-0.01136262,-257.21153,-193.60006)" />
    <path
       inkscape:connector-curvature="0"
       style="fill:none;stroke:#000000;stroke-width:10;stroke-linecap:round;stroke-linejoin:miter;stroke-miterlimit:4;stroke-opacity:1;stroke-dasharray:none"
       d="m -13.545236,-358.80606 c 0,0 -114.211404,-57.9774 -112.908304,-331.8748"
       id="path3088-4-2-0-5-3"
       sodipodi:nodetypes="cc" />
    <path
       inkscape:connector-curvature="0"
       style="fill:#fffcfc;fill-opacity:1;stroke:#000000;stroke-width:10.69999981;stroke-linecap:butt;stroke-linejoin:miter;stroke-miterlimit:4;stroke-opacity:1;stroke-dasharray:none"
       d="m 518.83076,-283.46116 c 19.4827,21.2132 33.6809,212.669583 8.1178,242.436583 -21.6487,25.2089 -163.5834,33.3899999 -219.1798,-1.0101 -19.8533,-12.2841 -7.7009,-224.411483 8.1177,-236.375683 20.6958,-15.653 180.2145,-21.2132 202.9443,-5.0508 z"
       id="path2822-5-1-0"
       sodipodi:nodetypes="csssc" />
    <path
       inkscape:connector-curvature="0"
       style="fill:none;stroke:#000000;stroke-width:10;stroke-linecap:butt;stroke-linejoin:miter;stroke-miterlimit:4;stroke-opacity:1;stroke-dasharray:none"
       d="m 497.49936,-29.120077 32.3249,52.5279"
       id="path3756-13-1"
       sodipodi:nodetypes="cc" />
    <path
       inkscape:connector-curvature="0"
       style="fill:none;stroke:#000000;stroke-width:9.9201107;stroke-linecap:butt;stroke-linejoin:miter;stroke-miterlimit:4;stroke-opacity:1;stroke-dasharray:none"
       d="m 353.89456,-27.139677 -30.5874,54.628"
       id="path3756-1-8-3"
       sodipodi:nodetypes="cc" />
    <path
       inkscape:connector-curvature="0"
       style="fill:#999999;fill-opacity:1;stroke:#000000;stroke-width:9.18459797;stroke-linecap:butt;stroke-linejoin:miter;stroke-miterlimit:4;stroke-opacity:1;stroke-dasharray:none"
       d="m 535.15216,-227.43766 c 0,0 -78.8349,-117.2414 -190.759,-5.7701 -64.7126,64.4509 -33.9311,-44.35 -20.6591,-67.0251 13.2721,-22.6754 177.6915,-26.2778 195.0254,-2.4783 17.334,23.7994 16.3927,75.2735 16.3927,75.2735 z"
       id="path4155-8-7"
       sodipodi:nodetypes="cszzc" />
    <path
       inkscape:connector-curvature="0"
       style="fill:#000000;fill-opacity:1;stroke:#000000;stroke-width:9.18459892;stroke-linecap:butt;stroke-linejoin:miter;stroke-miterlimit:4;stroke-opacity:1;stroke-dasharray:none"
       d="m 184.98896,-245.77306 c 0,0 -204.317196,-55.5428 -246.917096,111.892 -38.672504,151.998983 -33.4766,-114.5053 -11.4456,-149.5403 22.031,-35.035 218.294996,-31.1243 238.887896,-14.6036 20.5931,16.5206 19.4748,52.2519 19.4748,52.2519 z"
       id="path4155-8-0-6"
       sodipodi:nodetypes="cszzc" />
    <text
       xml:space="preserve"
       style="font-size:40px;font-style:normal;font-variant:normal;font-weight:normal;font-stretch:normal;fill:#000000;fill-opacity:1;stroke:none;font-family:Courier New;-inkscape-font-specification:Courier New"
       x="170.64119"
       y="-863.15674"
       id="text3898-5-0-1-5-1"><tspan
         sodipodi:role="line"
         x="170.64119"
         y="-863.15674"
         style="font-size:60px;font-style:normal;font-variant:normal;font-weight:normal;font-stretch:normal;font-family:Comic Sans MS;-inkscape-font-specification:Comic Sans MS"
         id="tspan4324-7">... so these are the two options.</tspan></text>
    <text
       xml:space="preserve"
       style="font-size:110px;font-style:normal;font-variant:normal;font-weight:normal;font-stretch:normal;fill:#000000;fill-opacity:1;stroke:none;font-family:Bored;-inkscape-font-specification:Bored"
       x="-245.0932"
       y="-982.55786"
       id="text4179-9-9-9-9"><tspan
         sodipodi:role="line"
         id="tspan4181-3-6-1-7"
         x="-245.0932"
         y="-982.55786"
         style="font-style:normal;font-variant:normal;font-weight:normal;font-stretch:normal;font-family:Purisa;-inkscape-font-specification:Purisa">YOUR CODE STINKS</tspan></text>
    <path
       inkscape:connector-curvature="0"
       style="fill:#fffcfc;fill-opacity:1;stroke:#000000;stroke-width:10.69999981;stroke-linecap:butt;stroke-linejoin:miter;stroke-miterlimit:4;stroke-opacity:1;stroke-dasharray:none"
       d="m 752.78745,-287.09926 c -23.4904,21.2132 -40.6092,212.669603 -9.7877,242.436583 26.102,25.2089 197.2332,33.39 264.26605,-1.0101 23.9371,-12.2841 9.2849,-224.411483 -9.78765,-236.375683 -24.953,-15.653 -217.2853,-21.2132 -244.6907,-5.0508 z"
       id="path2822-5-1-8"
       sodipodi:nodetypes="csssc" />
    <path
       inkscape:connector-curvature="0"
       style="fill:none;stroke:#000000;stroke-width:10;stroke-linecap:butt;stroke-linejoin:miter;stroke-miterlimit:4;stroke-opacity:1;stroke-dasharray:none"
       d="m 789.37025,-32.758177 -31.3203,52.5279"
       id="path3756-13-9"
       sodipodi:nodetypes="cc" />
    <path
       inkscape:connector-curvature="0"
       style="fill:none;stroke:#000000;stroke-width:9.9201107;stroke-linecap:butt;stroke-linejoin:miter;stroke-miterlimit:4;stroke-opacity:1;stroke-dasharray:none"
       d="m 957.58055,-30.777777 29.6369,54.628"
       id="path3756-1-8-8"
       sodipodi:nodetypes="cc" />
    <path
       inkscape:connector-curvature="0"
       style="fill:none;stroke:#000000;stroke-width:8.10000038;stroke-linecap:round;stroke-linejoin:miter;stroke-miterlimit:4;stroke-opacity:1;stroke-dasharray:none;stroke-dashoffset:0"
       d="m 862.21295,-539.53996 c 0,0 -103.4856,151.8881 -297.60319,190.4207"
       id="path3088-4-1-9-1-1"
       sodipodi:nodetypes="cc" />
    <path
       inkscape:connector-curvature="0"
       style="fill:#f8f30a;fill-opacity:1;stroke:#000000;stroke-width:9.18459797;stroke-linecap:butt;stroke-linejoin:miter;stroke-miterlimit:4;stroke-opacity:1;stroke-dasharray:none"
       d="m 735.83465,-208.55516 c 0,0 96.1682,-117.2414 232.7006,-5.7701 78.94085,64.4509 41.39155,-44.35 25.2014,-67.0251 -16.1902,-22.6754 -216.76,-26.2778 -237.9051,-2.4783 -21.1451,23.7994 -19.9969,75.2735 -19.9969,75.2735 z"
       id="path4155-8-7-7"
       sodipodi:nodetypes="cszzc" />
    <path
       sodipodi:type="arc"
       style="fill:#000000;fill-opacity:1;stroke:none"
       id="path3680-9-3"
       sodipodi:cx="-475.78186"
       sodipodi:cy="503.84937"
       sodipodi:rx="21.213203"
       sodipodi:ry="21.213203"
       d="m -454.56866,503.84937 a 21.213203,21.213203 0 1 1 -42.4264,0 21.213203,21.213203 0 1 1 42.4264,0 z"
       transform="matrix(-1,0,0,1,-63.006936,-704.13636)" />
    <path
       sodipodi:type="arc"
       style="fill:#000000;fill-opacity:1;stroke:none"
       id="path3680-8-49-5"
       sodipodi:cx="-475.78186"
       sodipodi:cy="503.84937"
       sodipodi:rx="21.213203"
       sodipodi:ry="21.213203"
       d="m -454.56866,503.84937 a 21.213203,21.213203 0 1 1 -42.4264,0 21.213203,21.213203 0 1 1 42.4264,0 z"
       transform="matrix(-1,0,0,1,14.822564,-701.41196)" />
    <path
       sodipodi:type="arc"
       style="fill:none;stroke:#000000;stroke-width:7.01082754;stroke-miterlimit:4;stroke-opacity:1;stroke-dasharray:none"
       id="path3680-6-4-0"
       sodipodi:cx="-475.78186"
       sodipodi:cy="503.84937"
       sodipodi:rx="21.213203"
       sodipodi:ry="21.213203"
       d="m -454.56866,503.84937 a 21.213203,21.213203 0 1 1 -42.4264,0 21.213203,21.213203 0 1 1 42.4264,0 z"
       transform="matrix(1.4673065,0,0,1.3865662,1119.4681,-874.54616)" />
    <path
       sodipodi:type="arc"
       style="fill:none;stroke:#000000;stroke-width:7.01082754;stroke-miterlimit:4;stroke-opacity:1;stroke-dasharray:none"
       id="path3680-6-4-7-9"
       sodipodi:cx="-475.78186"
       sodipodi:cy="503.84937"
       sodipodi:rx="21.213203"
       sodipodi:ry="21.213203"
       d="m -454.56866,503.84937 a 21.213203,21.213203 0 1 1 -42.4264,0 21.213203,21.213203 0 1 1 42.4264,0 z"
       transform="matrix(1.4673065,0,0,1.3865662,1193.0992,-874.90736)" />
    <path
       sodipodi:type="arc"
       style="fill:#000000;fill-opacity:1;stroke:none"
       id="path3598-3-7-1"
       sodipodi:cx="19.192898"
       sodipodi:cy="425.05746"
       sodipodi:rx="38.385796"
       sodipodi:ry="18.182745"
       d="m 57.578693,425.05746 a 38.385796,18.182745 0 1 1 -76.771591,0 38.385796,18.182745 0 1 1 76.771591,0 z"
       transform="matrix(0.74137943,0,0,1,767.98565,-605.73216)" />
    <path
       transform="matrix(0.74137943,0,0,1,884.81515,-605.73216)"
       sodipodi:type="arc"
       style="fill:#000000;fill-opacity:1;stroke:none"
       id="path3598-6-6-9-0"
       sodipodi:cx="19.192898"
       sodipodi:cy="425.05746"
       sodipodi:rx="38.385796"
       sodipodi:ry="18.182745"
       d="m 57.578693,425.05746 a 38.385796,18.182745 0 1 1 -76.771591,0 38.385796,18.182745 0 1 1 76.771591,0 z" />
    <path
       inkscape:connector-curvature="0"
       style="fill:none;stroke:#000000;stroke-width:8.10000038;stroke-linecap:round;stroke-linejoin:miter;stroke-miterlimit:4;stroke-opacity:1;stroke-dasharray:none;stroke-dashoffset:0"
       d="m 997.57335,-818.74826 c 0,0 54.09825,303.6348 -51.126,477.3041"
       id="path3088-4-1-9-1-1-6"
       sodipodi:nodetypes="cc" />
    <text
       xml:space="preserve"
       style="font-size:40px;font-style:normal;font-variant:normal;font-weight:normal;font-stretch:normal;fill:#000000;fill-opacity:1;stroke:none;font-family:Courier New;-inkscape-font-specification:Courier New"
       x="-288.68158"
       y="-724.74438"
       id="text3898-5-0-1-5-1-9"><tspan
         sodipodi:role="line"
         x="-288.68158"
         y="-724.74438"
         style="font-size:60px;font-style:normal;font-variant:normal;font-weight:normal;font-stretch:normal;font-family:Comic Sans MS;-inkscape-font-specification:Comic Sans MS"
         id="tspan4324-7-3">I see. We would like to have solution A.</tspan></text>
    <text
       xml:space="preserve"
       style="font-size:40px;font-style:normal;font-variant:normal;font-weight:normal;font-stretch:normal;fill:#000000;fill-opacity:1;stroke:none;font-family:Courier New;-inkscape-font-specification:Courier New"
       x="74.973213"
       y="-583.323"
       id="text3898-5-0-1-5-1-5"><tspan
         sodipodi:role="line"
         x="74.973213"
         y="-583.323"
         style="font-size:60px;font-style:normal;font-variant:normal;font-weight:normal;font-stretch:normal;font-family:Comic Sans MS;-inkscape-font-specification:Comic Sans MS"
         id="tspan4324-7-39">Can not be! We need solution B.</tspan></text>
    <rect
       style="fill:#ffffff;fill-opacity:1;stroke:#000000;stroke-width:9.13505077;stroke-linecap:round;stroke-linejoin:round;stroke-miterlimit:4;stroke-opacity:1;stroke-dasharray:none"
       id="rect5187-8-6-7-7-9"
       width="1389.4364"
       height="1008.2181"
       x="-318.69818"
       y="89.592056" />
    <path
       inkscape:connector-curvature="0"
       style="fill:#fffcfc;fill-opacity:1;stroke:#000000;stroke-width:10.4811945;stroke-linecap:butt;stroke-linejoin:miter;stroke-miterlimit:4;stroke-opacity:1;stroke-dasharray:none"
       d="m 172.11716,742.15272 c 23.2476,21.2266 40.1894,212.8043 9.6864,242.5901 -25.8321,25.22488 -195.194796,33.41118 -261.534696,-1.0107 -23.689704,-12.2919 -9.189,-224.5537 9.6864,-236.5254 24.6951,-15.663 215.039696,-21.2267 242.161896,-5.054 z"
       id="path2822-5-1-6-4-4-6-2-9"
       sodipodi:nodetypes="csssc" />
    <path
       inkscape:connector-curvature="0"
       style="fill:none;stroke:#000000;stroke-width:9.79550934;stroke-linecap:butt;stroke-linejoin:miter;stroke-miterlimit:4;stroke-opacity:1;stroke-dasharray:none"
       d="m 135.91226,996.65492 30.9967,52.56118"
       id="path3756-13-6-8-8-3-3-6"
       sodipodi:nodetypes="cc" />
    <path
       inkscape:connector-curvature="0"
       style="fill:none;stroke:#000000;stroke-width:9.71725368;stroke-linecap:butt;stroke-linejoin:miter;stroke-miterlimit:4;stroke-opacity:1;stroke-dasharray:none"
       d="m -30.559436,998.63652 -29.3307,54.66268"
       id="path3756-1-8-4-7-7-9-6-8"
       sodipodi:nodetypes="cc" />
    <path
       sodipodi:type="arc"
       style="fill:#000000;fill-opacity:1;stroke:none"
       id="path3598-4-7-9-1-1-4-5-4"
       sodipodi:cx="19.192898"
       sodipodi:cy="425.05746"
       sodipodi:rx="38.385796"
       sodipodi:ry="18.182745"
       d="m 57.578693,425.05746 a 38.385796,18.182745 0 1 1 -76.771591,0 38.385796,18.182745 0 1 1 76.771591,0 z"
       transform="matrix(0.00213942,1.0000945,0.95940501,-0.01136262,-257.21113,840.79612)" />
    <path
       inkscape:connector-curvature="0"
       style="fill:#fffcfc;fill-opacity:1;stroke:#000000;stroke-width:10.69999981;stroke-linecap:butt;stroke-linejoin:miter;stroke-miterlimit:4;stroke-opacity:1;stroke-dasharray:none"
       d="m 319.37106,750.93502 c -19.4827,21.2132 -33.6809,212.6696 -8.1178,242.4366 21.6487,25.20888 163.5834,33.38998 219.1798,-1.0101 19.8533,-12.2841 7.7009,-224.4115 -8.1177,-236.3757 -20.6958,-15.653 -180.2145,-21.2132 -202.9443,-5.0508 z"
       id="path2822-5-1-0-5"
       sodipodi:nodetypes="csssc" />
    <path
       inkscape:connector-curvature="0"
       style="fill:none;stroke:#000000;stroke-width:10;stroke-linecap:butt;stroke-linejoin:miter;stroke-miterlimit:4;stroke-opacity:1;stroke-dasharray:none"
       d="m 340.70246,1005.2761 -32.3249,52.5279"
       id="path3756-13-1-8"
       sodipodi:nodetypes="cc" />
    <path
       inkscape:connector-curvature="0"
       style="fill:none;stroke:#000000;stroke-width:9.9201107;stroke-linecap:butt;stroke-linejoin:miter;stroke-miterlimit:4;stroke-opacity:1;stroke-dasharray:none"
       d="m 484.30726,1007.2565 30.5874,54.628"
       id="path3756-1-8-3-2"
       sodipodi:nodetypes="cc" />
    <path
       inkscape:connector-curvature="0"
       style="fill:#999999;fill-opacity:1;stroke:#000000;stroke-width:9.18459797;stroke-linecap:butt;stroke-linejoin:miter;stroke-miterlimit:4;stroke-opacity:1;stroke-dasharray:none"
       d="m 303.04966,806.95852 c 0,0 78.8349,-117.2414 190.759,-5.7701 64.7126,64.4509 33.9311,-44.35 20.6591,-67.0251 -13.2721,-22.6754 -177.6915,-26.2778 -195.0254,-2.4783 -17.334,23.7994 -16.3927,75.2735 -16.3927,75.2735 z"
       id="path4155-8-7-8"
       sodipodi:nodetypes="cszzc" />
    <path
       inkscape:connector-curvature="0"
       style="fill:#000000;fill-opacity:1;stroke:#000000;stroke-width:9.18459892;stroke-linecap:butt;stroke-linejoin:miter;stroke-miterlimit:4;stroke-opacity:1;stroke-dasharray:none"
       d="m 184.98936,788.62312 c 0,0 -204.317196,-55.5428 -246.917096,111.892 -38.672504,151.99898 -33.4766,-114.5053 -11.4456,-149.5403 22.031,-35.035 218.294996,-31.1243 238.887896,-14.6036 20.5931,16.5206 19.4748,52.2519 19.4748,52.2519 z"
       id="path4155-8-0-6-3"
       sodipodi:nodetypes="cszzc" />
    <text
       xml:space="preserve"
       style="font-size:40px;font-style:normal;font-variant:normal;font-weight:normal;font-stretch:normal;fill:#000000;fill-opacity:1;stroke:none;font-family:Courier New;-inkscape-font-specification:Courier New"
       x="-298.06927"
       y="159.11769"
       id="text3898-5-0-1-5-1-58"><tspan
         sodipodi:role="line"
         x="-298.06927"
         y="159.11769"
         style="font-size:60px;font-style:normal;font-variant:normal;font-weight:normal;font-stretch:normal;font-family:Comic Sans MS;-inkscape-font-specification:Comic Sans MS"
         id="tspan4324-7-7">So, since there are two different requirements, </tspan><tspan
         sodipodi:role="line"
         x="-298.06927"
         y="234.11769"
         style="font-size:60px;font-style:normal;font-variant:normal;font-weight:normal;font-stretch:normal;font-family:Comic Sans MS;-inkscape-font-specification:Comic Sans MS"
         id="tspan4411">this option should be configurable...</tspan><tspan
         sodipodi:role="line"
         x="-298.06927"
         y="309.11771"
         style="font-size:60px;font-style:normal;font-variant:normal;font-weight:normal;font-stretch:normal;font-family:Comic Sans MS;-inkscape-font-specification:Comic Sans MS"
         id="tspan4409" /></text>
    <path
       inkscape:connector-curvature="0"
       style="fill:#fffcfc;fill-opacity:1;stroke:#000000;stroke-width:10.69999981;stroke-linecap:butt;stroke-linejoin:miter;stroke-miterlimit:4;stroke-opacity:1;stroke-dasharray:none"
       d="m 752.78785,747.29692 c -23.4904,21.2132 -40.6092,212.6696 -9.7877,242.4366 26.102,25.20888 197.2332,33.38998 264.26605,-1.0101 23.9371,-12.2841 9.2849,-224.4115 -9.78765,-236.3757 -24.953,-15.653 -217.2853,-21.2132 -244.6907,-5.0508 z"
       id="path2822-5-1-8-8"
       sodipodi:nodetypes="csssc" />
    <path
       inkscape:connector-curvature="0"
       style="fill:none;stroke:#000000;stroke-width:10;stroke-linecap:butt;stroke-linejoin:miter;stroke-miterlimit:4;stroke-opacity:1;stroke-dasharray:none"
       d="m 789.37065,1001.638 -31.3203,52.5279"
       id="path3756-13-9-3"
       sodipodi:nodetypes="cc" />
    <path
       inkscape:connector-curvature="0"
       style="fill:none;stroke:#000000;stroke-width:9.9201107;stroke-linecap:butt;stroke-linejoin:miter;stroke-miterlimit:4;stroke-opacity:1;stroke-dasharray:none"
       d="m 957.58095,1003.6184 29.6369,54.628"
       id="path3756-1-8-8-3"
       sodipodi:nodetypes="cc" />
    <path
       inkscape:connector-curvature="0"
       style="fill:none;stroke:#000000;stroke-width:8.10000038;stroke-linecap:round;stroke-linejoin:miter;stroke-miterlimit:4;stroke-opacity:1;stroke-dasharray:none;stroke-dashoffset:0"
       d="m 862.21335,494.85622 c 0,0 -103.4856,151.8881 -297.60319,190.4207"
       id="path3088-4-1-9-1-1-1"
       sodipodi:nodetypes="cc" />
    <path
       inkscape:connector-curvature="0"
       style="fill:#f8f30a;fill-opacity:1;stroke:#000000;stroke-width:9.18459797;stroke-linecap:butt;stroke-linejoin:miter;stroke-miterlimit:4;stroke-opacity:1;stroke-dasharray:none"
       d="m 735.83505,825.84102 c 0,0 96.1682,-117.2414 232.7006,-5.7701 78.94085,64.4509 41.39155,-44.35 25.2014,-67.0251 -16.1902,-22.6754 -216.76,-26.2778 -237.9051,-2.4783 -21.1451,23.7994 -19.9969,75.2735 -19.9969,75.2735 z"
       id="path4155-8-7-7-5"
       sodipodi:nodetypes="cszzc" />
    <path
       sodipodi:type="arc"
       style="fill:#000000;fill-opacity:1;stroke:none"
       id="path3680-9-3-6"
       sodipodi:cx="-475.78186"
       sodipodi:cy="503.84937"
       sodipodi:rx="21.213203"
       sodipodi:ry="21.213203"
       d="m -454.56866,503.84937 a 21.213203,21.213203 0 1 1 -42.4264,0 21.213203,21.213203 0 1 1 42.4264,0 z"
       transform="translate(901.20875,330.25982)" />
    <path
       sodipodi:type="arc"
       style="fill:#000000;fill-opacity:1;stroke:none"
       id="path3680-8-49-5-1"
       sodipodi:cx="-475.78186"
       sodipodi:cy="503.84937"
       sodipodi:rx="21.213203"
       sodipodi:ry="21.213203"
       d="m -454.56866,503.84937 a 21.213203,21.213203 0 1 1 -42.4264,0 21.213203,21.213203 0 1 1 42.4264,0 z"
       transform="translate(823.37925,332.98422)" />
    <path
       sodipodi:type="arc"
       style="fill:none;stroke:#000000;stroke-width:7.01082754;stroke-miterlimit:4;stroke-opacity:1;stroke-dasharray:none"
       id="path3680-6-4-0-3"
       sodipodi:cx="-475.78186"
       sodipodi:cy="503.84937"
       sodipodi:rx="21.213203"
       sodipodi:ry="21.213203"
       d="m -454.56866,503.84937 a 21.213203,21.213203 0 1 1 -42.4264,0 21.213203,21.213203 0 1 1 42.4264,0 z"
       transform="matrix(-1.4673065,0,0,1.3865662,-281.26623,159.85002)" />
    <path
       sodipodi:type="arc"
       style="fill:none;stroke:#000000;stroke-width:7.01082754;stroke-miterlimit:4;stroke-opacity:1;stroke-dasharray:none"
       id="path3680-6-4-7-9-0"
       sodipodi:cx="-475.78186"
       sodipodi:cy="503.84937"
       sodipodi:rx="21.213203"
       sodipodi:ry="21.213203"
       d="m -454.56866,503.84937 a 21.213203,21.213203 0 1 1 -42.4264,0 21.213203,21.213203 0 1 1 42.4264,0 z"
       transform="matrix(-1.4673065,0,0,1.3865662,-354.89733,159.48882)" />
    <path
       sodipodi:type="arc"
       style="fill:#000000;fill-opacity:1;stroke:none"
       id="path3598-3-7-1-0"
       sodipodi:cx="19.192898"
       sodipodi:cy="425.05746"
       sodipodi:rx="38.385796"
       sodipodi:ry="18.182745"
       d="m 57.578693,425.05746 a 38.385796,18.182745 0 1 1 -76.771591,0 38.385796,18.182745 0 1 1 76.771591,0 z"
       transform="matrix(0.74137943,0,0,1,767.98605,428.66402)" />
    <path
       transform="matrix(0.74137943,0,0,1,884.81555,428.66402)"
       sodipodi:type="arc"
       style="fill:#000000;fill-opacity:1;stroke:none"
       id="path3598-6-6-9-0-7"
       sodipodi:cx="19.192898"
       sodipodi:cy="425.05746"
       sodipodi:rx="38.385796"
       sodipodi:ry="18.182745"
       d="m 57.578693,425.05746 a 38.385796,18.182745 0 1 1 -76.771591,0 38.385796,18.182745 0 1 1 76.771591,0 z" />
    <path
       inkscape:connector-curvature="0"
       style="fill:none;stroke:#000000;stroke-width:8.10000038;stroke-linecap:round;stroke-linejoin:miter;stroke-miterlimit:4;stroke-opacity:1;stroke-dasharray:none;stroke-dashoffset:0"
       d="m -150.88994,280.29772 c 0,0 -83.70249,262.5081 79.103904,412.6543"
       id="path3088-4-1-9-1-1-6-0"
       sodipodi:nodetypes="cc" />
    <text
       xml:space="preserve"
       style="font-size:40px;font-style:normal;font-variant:normal;font-weight:normal;font-stretch:normal;text-align:end;text-anchor:end;fill:#000000;fill-opacity:1;stroke:none;font-family:Courier New;-inkscape-font-specification:Courier New"
       x="1037.5156"
       y="380.17947"
       id="text3898-5-0-1-5-1-9-9"><tspan
         sodipodi:role="line"
         x="1055.4453"
         y="380.17947"
         style="font-size:60px;font-style:normal;font-variant:normal;font-weight:normal;font-stretch:normal;text-align:end;text-anchor:end;font-family:Comic Sans MS;-inkscape-font-specification:Comic Sans MS"
         id="tspan4324-7-3-0">No, I think we should use only B. </tspan><tspan
         sodipodi:role="line"
         x="1037.5156"
         y="455.17947"
         style="font-size:60px;font-style:normal;font-variant:normal;font-weight:normal;font-stretch:normal;text-align:end;text-anchor:end;font-family:Comic Sans MS;-inkscape-font-specification:Comic Sans MS"
         id="tspan4413">I don't see any disadvantage of B.</tspan></text>
    <rect
       style="fill:#ffffff;fill-opacity:1;stroke:#000000;stroke-width:9.13505077;stroke-linecap:round;stroke-linejoin:round;stroke-miterlimit:4;stroke-opacity:1;stroke-dasharray:none"
       id="rect5187-8-6-7-7-9-0"
       width="1389.4364"
       height="1008.2181"
       x="-320.73822"
       y="1125.9066" />
    <path
       inkscape:connector-curvature="0"
       style="fill:#fffcfc;fill-opacity:1;stroke:#000000;stroke-width:10.4811945;stroke-linecap:butt;stroke-linejoin:miter;stroke-miterlimit:4;stroke-opacity:1;stroke-dasharray:none"
       d="m 170.07686,1778.4676 c 23.2476,21.2266 40.1894,212.8043 9.6864,242.5901 -25.8321,25.2249 -195.194796,33.4112 -261.534696,-1.0107 -23.689704,-12.2919 -9.189,-224.5537 9.6864,-236.5254 24.6951,-15.663 215.039696,-21.2267 242.161896,-5.054 z"
       id="path2822-5-1-6-4-4-6-2-9-5"
       sodipodi:nodetypes="csssc" />
    <path
       inkscape:connector-curvature="0"
       style="fill:none;stroke:#000000;stroke-width:9.79550934;stroke-linecap:butt;stroke-linejoin:miter;stroke-miterlimit:4;stroke-opacity:1;stroke-dasharray:none"
       d="m 133.87196,2032.9698 30.9967,52.5612"
       id="path3756-13-6-8-8-3-3-6-4"
       sodipodi:nodetypes="cc" />
    <path
       inkscape:connector-curvature="0"
       style="fill:none;stroke:#000000;stroke-width:9.71725368;stroke-linecap:butt;stroke-linejoin:miter;stroke-miterlimit:4;stroke-opacity:1;stroke-dasharray:none"
       d="m -32.599736,2034.9514 -29.3307,54.6627"
       id="path3756-1-8-4-7-7-9-6-8-8"
       sodipodi:nodetypes="cc" />
    <path
       sodipodi:type="arc"
       style="fill:#000000;fill-opacity:1;stroke:none"
       id="path3598-4-7-9-1-1-4-5-4-5"
       sodipodi:cx="19.192898"
       sodipodi:cy="425.05746"
       sodipodi:rx="38.385796"
       sodipodi:ry="18.182745"
       d="m 57.578693,425.05746 a 38.385796,18.182745 0 1 1 -76.771591,0 38.385796,18.182745 0 1 1 76.771591,0 z"
       transform="matrix(0.93278585,-0.36069953,-0.35471502,-0.89149556,281.46326,2277.3357)" />
    <path
       inkscape:connector-curvature="0"
       style="fill:#fffcfc;fill-opacity:1;stroke:#000000;stroke-width:10.69999981;stroke-linecap:butt;stroke-linejoin:miter;stroke-miterlimit:4;stroke-opacity:1;stroke-dasharray:none"
       d="m 317.33076,1787.2499 c -19.4827,21.2132 -33.6809,212.6696 -8.1178,242.4366 21.6487,25.2089 163.5834,33.39 219.1798,-1.0101 19.8533,-12.2841 7.7009,-224.4115 -8.1177,-236.3757 -20.6958,-15.653 -180.2145,-21.2132 -202.9443,-5.0508 z"
       id="path2822-5-1-0-5-8"
       sodipodi:nodetypes="csssc" />
    <path
       inkscape:connector-curvature="0"
       style="fill:none;stroke:#000000;stroke-width:10;stroke-linecap:butt;stroke-linejoin:miter;stroke-miterlimit:4;stroke-opacity:1;stroke-dasharray:none"
       d="m 338.66216,2041.591 -32.3249,52.5279"
       id="path3756-13-1-8-2"
       sodipodi:nodetypes="cc" />
    <path
       inkscape:connector-curvature="0"
       style="fill:none;stroke:#000000;stroke-width:9.9201107;stroke-linecap:butt;stroke-linejoin:miter;stroke-miterlimit:4;stroke-opacity:1;stroke-dasharray:none"
       d="m 482.26696,2043.5714 30.5874,54.628"
       id="path3756-1-8-3-2-2"
       sodipodi:nodetypes="cc" />
    <path
       inkscape:connector-curvature="0"
       style="fill:#999999;fill-opacity:1;stroke:#000000;stroke-width:9.18459797;stroke-linecap:butt;stroke-linejoin:miter;stroke-miterlimit:4;stroke-opacity:1;stroke-dasharray:none"
       d="m 301.00936,1843.2734 c 0,0 78.8349,-117.2414 190.759,-5.7701 64.7126,64.4509 33.9311,-44.35 20.6591,-67.0251 -13.2721,-22.6754 -177.6915,-26.2778 -195.0254,-2.4783 -17.334,23.7994 -16.3927,75.2735 -16.3927,75.2735 z"
       id="path4155-8-7-8-8"
       sodipodi:nodetypes="cszzc" />
    <path
       inkscape:connector-curvature="0"
       style="fill:#000000;fill-opacity:1;stroke:#000000;stroke-width:9.18459892;stroke-linecap:butt;stroke-linejoin:miter;stroke-miterlimit:4;stroke-opacity:1;stroke-dasharray:none"
       d="m 182.94906,1824.938 c 0,0 -204.317196,-55.5428 -246.917096,111.892 -38.672504,151.999 -33.4766,-114.5053 -11.4456,-149.5403 22.031,-35.035 218.294996,-31.1243 238.887896,-14.6036 20.5931,16.5206 19.4748,52.2519 19.4748,52.2519 z"
       id="path4155-8-0-6-3-4"
       sodipodi:nodetypes="cszzc" />
    <text
       xml:space="preserve"
       style="font-size:40px;font-style:normal;font-variant:normal;font-weight:normal;font-stretch:normal;fill:#000000;fill-opacity:1;stroke:none;font-family:Courier New;-inkscape-font-specification:Courier New"
       x="-300.10931"
       y="1195.4325"
       id="text3898-5-0-1-5-1-58-3"><tspan
         sodipodi:role="line"
         x="-300.10931"
         y="1195.4325"
         style="font-size:60px;font-style:normal;font-variant:normal;font-weight:normal;font-stretch:normal;font-family:Comic Sans MS;-inkscape-font-specification:Comic Sans MS"
         id="tspan4409-1">Well, it excludes the solution we need. </tspan><tspan
         sodipodi:role="line"
         x="-300.10931"
         y="1270.4325"
         style="font-size:60px;font-style:normal;font-variant:normal;font-weight:normal;font-stretch:normal;font-family:Comic Sans MS;-inkscape-font-specification:Comic Sans MS"
         id="tspan4522">This is a disadvantage.</tspan></text>
    <path
       inkscape:connector-curvature="0"
       style="fill:#fffcfc;fill-opacity:1;stroke:#000000;stroke-width:10.69999981;stroke-linecap:butt;stroke-linejoin:miter;stroke-miterlimit:4;stroke-opacity:1;stroke-dasharray:none"
       d="m 750.74765,1783.6118 c -23.4904,21.2132 -40.6092,212.6696 -9.7877,242.4366 26.102,25.2089 197.2332,33.39 264.26605,-1.0101 23.9371,-12.2841 9.2849,-224.4115 -9.78765,-236.3757 -24.953,-15.653 -217.2853,-21.2132 -244.6907,-5.0508 z"
       id="path2822-5-1-8-8-9"
       sodipodi:nodetypes="csssc" />
    <path
       inkscape:connector-curvature="0"
       style="fill:none;stroke:#000000;stroke-width:10;stroke-linecap:butt;stroke-linejoin:miter;stroke-miterlimit:4;stroke-opacity:1;stroke-dasharray:none"
       d="m 787.33045,2037.9529 -31.3203,52.5279"
       id="path3756-13-9-3-8"
       sodipodi:nodetypes="cc" />
    <path
       inkscape:connector-curvature="0"
       style="fill:none;stroke:#000000;stroke-width:9.9201107;stroke-linecap:butt;stroke-linejoin:miter;stroke-miterlimit:4;stroke-opacity:1;stroke-dasharray:none"
       d="m 955.54075,2039.9333 29.6369,54.628"
       id="path3756-1-8-8-3-6"
       sodipodi:nodetypes="cc" />
    <path
       inkscape:connector-curvature="0"
       style="fill:none;stroke:#000000;stroke-width:8.10000038;stroke-linecap:round;stroke-linejoin:miter;stroke-miterlimit:4;stroke-opacity:1;stroke-dasharray:none;stroke-dashoffset:0"
       d="m 734.91435,1624.1051 c 0,0 -59.9294,77.7598 -172.34439,97.4867"
       id="path3088-4-1-9-1-1-1-4"
       sodipodi:nodetypes="cc" />
    <path
       inkscape:connector-curvature="0"
       style="fill:#f8f30a;fill-opacity:1;stroke:#000000;stroke-width:9.18459797;stroke-linecap:butt;stroke-linejoin:miter;stroke-miterlimit:4;stroke-opacity:1;stroke-dasharray:none"
       d="m 733.79485,1862.1559 c 0,0 96.1682,-117.2414 232.7006,-5.7701 78.94085,64.4509 41.39155,-44.35 25.2014,-67.0251 -16.1902,-22.6754 -216.76,-26.2778 -237.9051,-2.4783 -21.1451,23.7994 -19.9969,75.2735 -19.9969,75.2735 z"
       id="path4155-8-7-7-5-1"
       sodipodi:nodetypes="cszzc" />
    <path
       sodipodi:type="arc"
       style="fill:#000000;fill-opacity:1;stroke:none"
       id="path3680-9-3-6-1"
       sodipodi:cx="-475.78186"
       sodipodi:cy="503.84937"
       sodipodi:rx="21.213203"
       sodipodi:ry="21.213203"
       d="m -454.56866,503.84937 a 21.213203,21.213203 0 1 1 -42.4264,0 21.213203,21.213203 0 1 1 42.4264,0 z"
       transform="translate(899.16855,1366.5747)" />
    <path
       sodipodi:type="arc"
       style="fill:#000000;fill-opacity:1;stroke:none"
       id="path3680-8-49-5-1-1"
       sodipodi:cx="-475.78186"
       sodipodi:cy="503.84937"
       sodipodi:rx="21.213203"
       sodipodi:ry="21.213203"
       d="m -454.56866,503.84937 a 21.213203,21.213203 0 1 1 -42.4264,0 21.213203,21.213203 0 1 1 42.4264,0 z"
       transform="translate(821.33905,1369.2991)" />
    <path
       sodipodi:type="arc"
       style="fill:none;stroke:#000000;stroke-width:7.01082754;stroke-miterlimit:4;stroke-opacity:1;stroke-dasharray:none"
       id="path3680-6-4-0-3-2"
       sodipodi:cx="-475.78186"
       sodipodi:cy="503.84937"
       sodipodi:rx="21.213203"
       sodipodi:ry="21.213203"
       d="m -454.56866,503.84937 a 21.213203,21.213203 0 1 1 -42.4264,0 21.213203,21.213203 0 1 1 42.4264,0 z"
       transform="matrix(-1.4673065,0,0,1.3865662,-283.30653,1196.165)" />
    <path
       sodipodi:type="arc"
       style="fill:none;stroke:#000000;stroke-width:7.01082754;stroke-miterlimit:4;stroke-opacity:1;stroke-dasharray:none"
       id="path3680-6-4-7-9-0-6"
       sodipodi:cx="-475.78186"
       sodipodi:cy="503.84937"
       sodipodi:rx="21.213203"
       sodipodi:ry="21.213203"
       d="m -454.56866,503.84937 a 21.213203,21.213203 0 1 1 -42.4264,0 21.213203,21.213203 0 1 1 42.4264,0 z"
       transform="matrix(-1.4673065,0,0,1.3865662,-356.93763,1195.8038)" />
    <path
       sodipodi:type="arc"
       style="fill:#000000;fill-opacity:1;stroke:none"
       id="path3598-3-7-1-0-1"
       sodipodi:cx="19.192898"
       sodipodi:cy="425.05746"
       sodipodi:rx="38.385796"
       sodipodi:ry="18.182745"
       d="m 57.578693,425.05746 a 38.385796,18.182745 0 1 1 -76.771591,0 38.385796,18.182745 0 1 1 76.771591,0 z"
       transform="matrix(0.74137943,0,0,1,765.94585,1464.9789)" />
    <path
       transform="matrix(0.74137943,0,0,1,882.77535,1464.9789)"
       sodipodi:type="arc"
       style="fill:#000000;fill-opacity:1;stroke:none"
       id="path3598-6-6-9-0-7-4"
       sodipodi:cx="19.192898"
       sodipodi:cy="425.05746"
       sodipodi:rx="38.385796"
       sodipodi:ry="18.182745"
       d="m 57.578693,425.05746 a 38.385796,18.182745 0 1 1 -76.771591,0 38.385796,18.182745 0 1 1 76.771591,0 z" />
    <path
       inkscape:connector-curvature="0"
       style="fill:none;stroke:#000000;stroke-width:8.10000038;stroke-linecap:round;stroke-linejoin:miter;stroke-miterlimit:4;stroke-opacity:1;stroke-dasharray:none;stroke-dashoffset:0"
       d="m -152.93024,1316.6126 c 0,0 -83.70249,262.5081 79.103904,412.6543"
       id="path3088-4-1-9-1-1-6-0-4"
       sodipodi:nodetypes="cc" />
    <text
       xml:space="preserve"
       style="font-size:40px;font-style:normal;font-variant:normal;font-weight:normal;font-stretch:normal;text-align:end;text-anchor:end;fill:#000000;fill-opacity:1;stroke:none;font-family:Courier New;-inkscape-font-specification:Courier New"
       x="1035.4756"
       y="1381.8851"
       id="text3898-5-0-1-5-1-9-9-3"><tspan
         sodipodi:role="line"
         x="1053.4053"
         y="1381.8851"
         style="font-size:60px;font-style:normal;font-variant:normal;font-weight:normal;font-stretch:normal;text-align:end;text-anchor:end;font-family:Comic Sans MS;-inkscape-font-specification:Comic Sans MS"
         id="tspan4413-4">I can't argue with that, </tspan><tspan
         sodipodi:role="line"
         x="1053.4053"
         y="1456.8851"
         style="font-size:60px;font-style:normal;font-variant:normal;font-weight:normal;font-stretch:normal;text-align:end;text-anchor:end;font-family:Comic Sans MS;-inkscape-font-specification:Comic Sans MS"
         id="tspan4530">and I have no technical arguments, </tspan><tspan
         sodipodi:role="line"
         x="1053.4053"
         y="1531.8851"
         style="font-size:60px;font-style:normal;font-variant:normal;font-weight:normal;font-stretch:normal;text-align:end;text-anchor:end;font-family:Comic Sans MS;-inkscape-font-specification:Comic Sans MS"
         id="tspan4540">but I <tspan
   style="font-weight:bold;-inkscape-font-specification:Comic Sans MS Bold Italic;font-style:italic"
   id="tspan5023">feel</tspan> that  we should use </tspan><tspan
         sodipodi:role="line"
         x="1035.4756"
         y="1606.8851"
         style="font-size:60px;font-style:normal;font-variant:normal;font-weight:normal;font-stretch:normal;text-align:end;text-anchor:end;font-family:Comic Sans MS;-inkscape-font-specification:Comic Sans MS"
         id="tspan4544">solution B.</tspan><tspan
         sodipodi:role="line"
         x="1035.4756"
         y="1681.8851"
         style="font-size:60px;font-style:normal;font-variant:normal;font-weight:normal;font-stretch:normal;text-align:end;text-anchor:end;font-family:Comic Sans MS;-inkscape-font-specification:Comic Sans MS"
         id="tspan4526" /></text>
  </g>
</svg>
