<?xml version="1.0" encoding="UTF-8" standalone="no"?>
<!-- Created with Inkscape (http://www.inkscape.org/) -->

<svg
   xmlns:dc="http://purl.org/dc/elements/1.1/"
   xmlns:cc="http://creativecommons.org/ns#"
   xmlns:rdf="http://www.w3.org/1999/02/22-rdf-syntax-ns#"
   xmlns:svg="http://www.w3.org/2000/svg"
   xmlns="http://www.w3.org/2000/svg"
   xmlns:sodipodi="http://sodipodi.sourceforge.net/DTD/sodipodi-0.dtd"
   xmlns:inkscape="http://www.inkscape.org/namespaces/inkscape"
   width="744.09448819"
   height="1052.3622047"
   id="svg4536"
   version="1.1"
   inkscape:version="0.48.3.1 r9886"
   sodipodi:docname="yourcodestinks-030-mathematican.svg"
   inkscape:export-filename="/home/yals/Desktop/sandbox/yourcodestinks/rendered/yourcodestinks-030-mathematican.png"
   inkscape:export-xdpi="44.979889"
   inkscape:export-ydpi="44.979889">
  <defs
     id="defs4538" />
  <sodipodi:namedview
     id="base"
     pagecolor="#ffffff"
     bordercolor="#666666"
     borderopacity="1.0"
     inkscape:pageopacity="0.0"
     inkscape:pageshadow="2"
     inkscape:zoom="0.35"
     inkscape:cx="391.16244"
     inkscape:cy="125.90491"
     inkscape:document-units="px"
     inkscape:current-layer="layer1"
     showgrid="false"
     inkscape:window-width="1244"
     inkscape:window-height="778"
     inkscape:window-x="0"
     inkscape:window-y="0"
     inkscape:window-maximized="1" />
  <metadata
     id="metadata4541">
    <rdf:RDF>
      <cc:Work
         rdf:about="">
        <dc:format>image/svg+xml</dc:format>
        <dc:type
           rdf:resource="http://purl.org/dc/dcmitype/StillImage" />
        <dc:title></dc:title>
      </cc:Work>
    </rdf:RDF>
  </metadata>
  <g
     inkscape:label="Layer 1"
     inkscape:groupmode="layer"
     id="layer1">
    <rect
       style="fill:#ffffff;fill-opacity:1;stroke:#a57553;stroke-width:0;stroke-linecap:round;stroke-linejoin:round;stroke-miterlimit:4;stroke-opacity:1;stroke-dasharray:none;stroke-dashoffset:0"
       id="rect3050"
       width="1478.8632"
       height="2210.2141"
       x="-363.65494"
       y="-628.53168" />
    <rect
       style="fill:#ffffff;fill-opacity:1;stroke:#000000;stroke-width:9.13505077;stroke-linecap:round;stroke-linejoin:round;stroke-miterlimit:4;stroke-opacity:1;stroke-dasharray:none"
       id="rect5187-8-6-7-7"
       width="1389.4364"
       height="947.60895"
       x="-319.73871"
       y="-466.88556" />
    <text
       xml:space="preserve"
       style="font-size:40px;font-style:normal;font-variant:normal;font-weight:normal;font-stretch:normal;fill:#000000;fill-opacity:1;stroke:none;font-family:Courier New;-inkscape-font-specification:Courier New"
       x="-272.21234"
       y="-378.95758"
       id="text3898-5-0-1"><tspan
         sodipodi:role="line"
         x="-272.21234"
         y="-378.95758"
         style="font-size:60px;font-style:normal;font-variant:normal;font-weight:normal;font-stretch:normal;font-family:Comic Sans MS;-inkscape-font-specification:Comic Sans MS"
         id="tspan4328">How the hell can I configure my</tspan><tspan
         sodipodi:role="line"
         x="-272.21234"
         y="-303.95758"
         style="font-size:60px;font-style:normal;font-variant:normal;font-weight:normal;font-stretch:normal;font-family:Comic Sans MS;-inkscape-font-specification:Comic Sans MS"
         id="tspan3069">mouse left handed in Windows 7?</tspan><tspan
         sodipodi:role="line"
         x="-272.21234"
         y="-228.95758"
         style="font-size:60px;font-style:normal;font-variant:normal;font-weight:normal;font-stretch:normal;font-family:Comic Sans MS;-inkscape-font-specification:Comic Sans MS"
         id="tspan4182" /><tspan
         sodipodi:role="line"
         x="-272.21234"
         y="-153.95758"
         style="font-size:60px;font-style:normal;font-variant:normal;font-weight:normal;font-stretch:normal;font-family:Comic Sans MS;-inkscape-font-specification:Comic Sans MS"
         id="tspan4192" /><tspan
         sodipodi:role="line"
         x="-272.21234"
         y="-78.957581"
         style="font-size:60px;font-style:normal;font-variant:normal;font-weight:normal;font-stretch:normal;font-family:Comic Sans MS;-inkscape-font-specification:Comic Sans MS"
         id="tspan4184" /></text>
    <path
       inkscape:connector-curvature="0"
       style="fill:none;stroke:#000000;stroke-width:10;stroke-linecap:round;stroke-linejoin:miter;stroke-miterlimit:4;stroke-opacity:1;stroke-dasharray:none"
       d="m -75.194907,104.58462 c 0,0 -69.764693,-67.616029 -76.542793,-372.28093"
       id="path3088-4-2-0-5-3"
       sodipodi:nodetypes="cc" />
    <path
       inkscape:connector-curvature="0"
       style="fill:#ffffff;fill-opacity:1;stroke:#000000;stroke-width:10.69999980999999956;stroke-linecap:butt;stroke-linejoin:miter;stroke-miterlimit:4;stroke-opacity:1;stroke-dasharray:none"
       d="m 331.90535,136.45748 c -24.2437,21.2132 -41.9115,212.66958 -10.1015,242.43658 26.939,25.2089 203.5586,33.39 272.7411,-1.0101 24.7048,-12.2841 9.5827,-224.41148 -10.1015,-236.37568 -25.7532,-15.653 -224.2538,-21.2132 -252.5381,-5.0508 z"
       id="path2822-5-1-0"
       sodipodi:nodetypes="csssc" />
    <path
       inkscape:connector-curvature="0"
       style="fill:none;stroke:#000000;stroke-width:10;stroke-linecap:butt;stroke-linejoin:miter;stroke-miterlimit:4;stroke-opacity:1;stroke-dasharray:none"
       d="m 369.66155,390.79856 -32.3249,52.5279"
       id="path3756-13-1"
       sodipodi:nodetypes="cc" />
    <path
       inkscape:connector-curvature="0"
       style="fill:none;stroke:#000000;stroke-width:9.9201107;stroke-linecap:butt;stroke-linejoin:miter;stroke-miterlimit:4;stroke-opacity:1;stroke-dasharray:none"
       d="m 543.26635,392.77896 30.5874,54.628"
       id="path3756-1-8-3"
       sodipodi:nodetypes="cc" />
    <path
       inkscape:connector-curvature="0"
       style="fill:#f8f30a;fill-opacity:1;stroke:#000000;stroke-width:9.18459797;stroke-linecap:butt;stroke-linejoin:miter;stroke-miterlimit:4;stroke-opacity:1;stroke-dasharray:none"
       d="m 317.76615,192.48098 c 0,0 96.1682,-117.2414 232.7006,-5.7701 78.94082,64.45088 41.3915,-44.35 25.2014,-67.0251 -16.1902,-22.6754 -216.76,-26.2778 -237.9051,-2.4783 -21.1451,23.7994 -19.9969,75.2735 -19.9969,75.2735 z"
       id="path4155-8-7"
       sodipodi:nodetypes="cszzc" />
    <text
       xml:space="preserve"
       style="font-size:40px;font-style:normal;font-variant:normal;font-weight:normal;font-stretch:normal;fill:#000000;fill-opacity:1;stroke:none;font-family:Courier New;-inkscape-font-specification:Courier New"
       x="519.65143"
       y="-161.98935"
       id="text3898-5-0-1-5-1"><tspan
         sodipodi:role="line"
         x="519.65143"
         y="-161.98935"
         style="font-size:60px;font-style:normal;font-variant:normal;font-weight:normal;font-stretch:normal;font-family:Comic Sans MS;-inkscape-font-specification:Comic Sans MS"
         id="tspan4324-7">Let me see...</tspan></text>
    <text
       xml:space="preserve"
       style="font-size:110px;font-style:normal;font-variant:normal;font-weight:normal;font-stretch:normal;fill:#000000;fill-opacity:1;stroke:none;font-family:Bored;-inkscape-font-specification:Bored"
       x="-246.13373"
       y="-504.63922"
       id="text4179-9-9-9-9"><tspan
         sodipodi:role="line"
         id="tspan4181-3-6-1-7"
         x="-246.13373"
         y="-504.63922"
         style="font-style:normal;font-variant:normal;font-weight:normal;font-stretch:normal;font-family:Purisa;-inkscape-font-specification:Purisa">YOUR CODE STINKS</tspan></text>
    <path
       inkscape:connector-curvature="0"
       style="fill:#ffffff;fill-opacity:1;stroke:#000000;stroke-width:10.69999980999999956;stroke-linecap:butt;stroke-linejoin:miter;stroke-miterlimit:4;stroke-opacity:1;stroke-dasharray:none"
       d="m 147.74915,124.5252 c 23.4904,21.2132 40.6092,212.6696 9.7877,242.4366 -26.102,25.2089 -197.233204,33.39 -264.266,-1.0101 -23.9371,-12.2841 -9.2849,-224.4115 9.787596,-236.3757 24.953,-15.653 217.285304,-21.2132 244.690704,-5.0508 z"
       id="path2822-5-1-8"
       sodipodi:nodetypes="csssc" />
    <path
       inkscape:connector-curvature="0"
       style="fill:none;stroke:#000000;stroke-width:10;stroke-linecap:butt;stroke-linejoin:miter;stroke-miterlimit:4;stroke-opacity:1;stroke-dasharray:none"
       d="m 111.16635,378.8663 31.3203,52.5279"
       id="path3756-13-9"
       sodipodi:nodetypes="cc" />
    <path
       inkscape:connector-curvature="0"
       style="fill:none;stroke:#000000;stroke-width:9.9201107;stroke-linecap:butt;stroke-linejoin:miter;stroke-miterlimit:4;stroke-opacity:1;stroke-dasharray:none"
       d="m -57.043954,380.8467 -29.6369,54.628"
       id="path3756-1-8-8"
       sodipodi:nodetypes="cc" />
    <path
       sodipodi:type="arc"
       style="fill:#000000;fill-opacity:1;stroke:none"
       id="path3598-4-7-94"
       sodipodi:cx="19.192898"
       sodipodi:cy="425.05746"
       sodipodi:rx="38.385796"
       sodipodi:ry="18.182745"
       d="m 57.578693,425.05746 a 38.385796,18.182745 0 1 1 -76.771591,0 38.385796,18.182745 0 1 1 76.771591,0 z"
       transform="matrix(-0.96849467,-0.06698635,-0.14260046,0.99058234,204.12075,-169.10796)" />
    <path
       transform="matrix(-0.96649532,-0.07631007,-0.00793123,1.0018887,1.9833388,-175.75509)"
       sodipodi:type="arc"
       style="fill:#000000;fill-opacity:1;stroke:none"
       id="path3598-6-9-8-50"
       sodipodi:cx="19.192898"
       sodipodi:cy="425.05746"
       sodipodi:rx="38.385796"
       sodipodi:ry="18.182745"
       d="m 57.578693,425.05746 a 38.385796,18.182745 0 1 1 -76.771591,0 38.385796,18.182745 0 1 1 76.771591,0 z" />
    <path
       inkscape:connector-curvature="0"
       style="fill:#000000;fill-opacity:1;stroke:#000000;stroke-width:9.18459797;stroke-linecap:butt;stroke-linejoin:miter;stroke-miterlimit:4;stroke-opacity:1;stroke-dasharray:none"
       d="m 159.51115,180.5487 c 0,0 -79.477004,-102.4207 -223.512104,-13.8223 -74.917596,46.0828 -38.147696,-22.3715 -22.4608,-38.1117 15.6872,-15.7404 206.109404,-16.8386 226.597504,-0.3179 20.488,16.5206 19.3754,52.2519 19.3754,52.2519 z"
       id="path4155-8-08"
       sodipodi:nodetypes="cszzc" />
    <path
       inkscape:connector-curvature="0"
       style="fill:none;stroke:#000000;stroke-width:8.10000038;stroke-linecap:round;stroke-linejoin:miter;stroke-miterlimit:4;stroke-opacity:1;stroke-dasharray:none;stroke-dashoffset:0"
       d="m 809.17247,-138.79901 c 0,0 -38.83584,141.9812883 -204.66918,242.9486"
       id="path3088-4-1-9-1-1"
       sodipodi:nodetypes="cc" />
    <path
       sodipodi:type="arc"
       style="fill:#000000;fill-opacity:1;stroke:none"
       id="path3680-9-3"
       sodipodi:cx="-475.78186"
       sodipodi:cy="503.84937"
       sodipodi:rx="21.213203"
       sodipodi:ry="21.213203"
       d="m -454.56866,503.84937 a 21.213203,21.213203 0 1 1 -42.4264,0 21.213203,21.213203 0 1 1 42.4264,0 z"
       transform="translate(954.1679,-242.21772)" />
    <path
       sodipodi:type="arc"
       style="fill:#000000;fill-opacity:1;stroke:none"
       id="path3680-8-49-5"
       sodipodi:cx="-475.78186"
       sodipodi:cy="503.84937"
       sodipodi:rx="21.213203"
       sodipodi:ry="21.213203"
       d="m -454.56866,503.84937 a 21.213203,21.213203 0 1 1 -42.4264,0 21.213203,21.213203 0 1 1 42.4264,0 z"
       transform="translate(842.33837,-239.49332)" />
    <rect
       style="fill:#ffffff;fill-opacity:1;stroke:#000000;stroke-width:9.13504982;stroke-linecap:round;stroke-linejoin:round;stroke-miterlimit:4;stroke-opacity:1;stroke-dasharray:none"
       id="rect5187-8-6-7-7-8"
       width="1389.4364"
       height="1040.543"
       x="-320.90088"
       y="505.82669" />
    <path
       inkscape:connector-curvature="0"
       style="fill:#ffffff;fill-opacity:1;stroke:#000000;stroke-width:10.69999980999999956;stroke-linecap:butt;stroke-linejoin:miter;stroke-miterlimit:4;stroke-opacity:1;stroke-dasharray:none"
       d="m 330.74321,1209.1698 c -24.2437,21.2132 -41.9115,212.6695 -10.1015,242.4365 26.939,25.2089 203.5586,33.39 272.7411,-1.0101 24.7048,-12.2841 9.5827,-224.4114 -10.1015,-236.3756 -25.7532,-15.653 -224.2538,-21.2132 -252.5381,-5.0508 z"
       id="path2822-5-1-0-7"
       sodipodi:nodetypes="csssc" />
    <path
       inkscape:connector-curvature="0"
       style="fill:none;stroke:#000000;stroke-width:10;stroke-linecap:butt;stroke-linejoin:miter;stroke-miterlimit:4;stroke-opacity:1;stroke-dasharray:none"
       d="m 368.49941,1463.5108 -32.3249,52.5279"
       id="path3756-13-1-3"
       sodipodi:nodetypes="cc" />
    <path
       inkscape:connector-curvature="0"
       style="fill:none;stroke:#000000;stroke-width:9.9201107;stroke-linecap:butt;stroke-linejoin:miter;stroke-miterlimit:4;stroke-opacity:1;stroke-dasharray:none"
       d="m 542.10421,1465.4912 30.5874,54.628"
       id="path3756-1-8-3-2"
       sodipodi:nodetypes="cc" />
    <path
       inkscape:connector-curvature="0"
       style="fill:#f8f30a;fill-opacity:1;stroke:#000000;stroke-width:9.18459797;stroke-linecap:butt;stroke-linejoin:miter;stroke-miterlimit:4;stroke-opacity:1;stroke-dasharray:none"
       d="m 595.71424,1265.1933 c 0,0 -96.1682,-117.2414 -232.7006,-5.7701 -78.94082,64.4508 -41.3915,-44.35 -25.2014,-67.0251 16.1902,-22.6754 216.76,-26.2778 237.9051,-2.4783 21.1451,23.7994 19.9969,75.2735 19.9969,75.2735 z"
       id="path4155-8-7-5"
       sodipodi:nodetypes="cszzc" />
    <text
       xml:space="preserve"
       style="font-size:40px;font-style:normal;font-variant:normal;font-weight:normal;font-stretch:normal;text-align:end;text-anchor:end;fill:#000000;fill-opacity:1;stroke:none;font-family:Courier New;-inkscape-font-specification:Courier New"
       x="1026.3988"
       y="576.36755"
       id="text3898-5-0-1-5-1-7"><tspan
         sodipodi:role="line"
         x="1026.3988"
         y="576.36755"
         style="font-size:60px;font-style:normal;font-variant:normal;font-weight:normal;font-stretch:normal;text-align:end;text-anchor:end;font-family:Comic Sans MS;-inkscape-font-specification:Comic Sans MS"
         id="tspan4324-7-8">You could extend your problem</tspan><tspan
         sodipodi:role="line"
         x="1044.3285"
         y="651.36755"
         style="font-size:60px;font-style:normal;font-variant:normal;font-weight:normal;font-stretch:normal;text-align:end;text-anchor:end;font-family:Comic Sans MS;-inkscape-font-specification:Comic Sans MS"
         id="tspan5421">into four dimensions, where you can </tspan><tspan
         sodipodi:role="line"
         x="1026.3988"
         y="726.36755"
         style="font-size:60px;font-style:normal;font-variant:normal;font-weight:normal;font-stretch:normal;text-align:end;text-anchor:end;font-family:Comic Sans MS;-inkscape-font-specification:Comic Sans MS"
         id="tspan5425">mirror your mouse by rotating it.</tspan></text>
    <path
       inkscape:connector-curvature="0"
       style="fill:#ffffff;fill-opacity:1;stroke:#000000;stroke-width:10.69999980999999956;stroke-linecap:butt;stroke-linejoin:miter;stroke-miterlimit:4;stroke-opacity:1;stroke-dasharray:none"
       d="m 146.58701,1197.2375 c 23.4904,21.2132 40.6092,212.6696 9.7877,242.4366 -26.102,25.2089 -197.233198,33.39 -264.26602,-1.0101 -23.9371,-12.2841 -9.2849,-224.4115 9.787622,-236.3757 24.953,-15.653 217.285298,-21.2132 244.690698,-5.0508 z"
       id="path2822-5-1-8-1"
       sodipodi:nodetypes="csssc" />
    <path
       inkscape:connector-curvature="0"
       style="fill:none;stroke:#000000;stroke-width:10;stroke-linecap:butt;stroke-linejoin:miter;stroke-miterlimit:4;stroke-opacity:1;stroke-dasharray:none"
       d="m 110.00421,1451.5786 31.3203,52.5279"
       id="path3756-13-9-1"
       sodipodi:nodetypes="cc" />
    <path
       inkscape:connector-curvature="0"
       style="fill:none;stroke:#000000;stroke-width:9.9201107;stroke-linecap:butt;stroke-linejoin:miter;stroke-miterlimit:4;stroke-opacity:1;stroke-dasharray:none"
       d="m -58.206088,1453.559 -29.6369,54.628"
       id="path3756-1-8-8-2"
       sodipodi:nodetypes="cc" />
    <path
       sodipodi:type="arc"
       style="fill:#000000;fill-opacity:1;stroke:none"
       id="path3598-4-7-94-5"
       sodipodi:cx="19.192898"
       sodipodi:cy="425.05746"
       sodipodi:rx="38.385796"
       sodipodi:ry="18.182745"
       d="m 57.578693,425.05746 a 38.385796,18.182745 0 1 1 -76.771591,0 38.385796,18.182745 0 1 1 76.771591,0 z"
       transform="matrix(-0.96849467,-0.06698635,-0.14260046,0.99058234,204.95861,883.60432)" />
    <path
       transform="matrix(-0.96649532,-0.07631007,-0.00793123,1.0018887,2.8212024,876.95719)"
       sodipodi:type="arc"
       style="fill:#000000;fill-opacity:1;stroke:none"
       id="path3598-6-9-8-50-4"
       sodipodi:cx="19.192898"
       sodipodi:cy="425.05746"
       sodipodi:rx="38.385796"
       sodipodi:ry="18.182745"
       d="m 57.578693,425.05746 a 38.385796,18.182745 0 1 1 -76.771591,0 38.385796,18.182745 0 1 1 76.771591,0 z" />
    <path
       inkscape:connector-curvature="0"
       style="fill:#000000;fill-opacity:1;stroke:#000000;stroke-width:9.18459797;stroke-linecap:butt;stroke-linejoin:miter;stroke-miterlimit:4;stroke-opacity:1;stroke-dasharray:none"
       d="m 158.34901,1253.261 c 0,0 -79.476998,-102.4207 -223.512098,-13.8223 -74.917622,46.0828 -38.147722,-22.3715 -22.4608,-38.1117 15.6872,-15.7404 206.109398,-16.8386 226.597498,-0.3179 20.488,16.5206 19.3754,52.2519 19.3754,52.2519 z"
       id="path4155-8-08-6"
       sodipodi:nodetypes="cszzc" />
    <path
       inkscape:connector-curvature="0"
       style="fill:none;stroke:#000000;stroke-width:8.10000038;stroke-linecap:round;stroke-linejoin:miter;stroke-miterlimit:4;stroke-opacity:1;stroke-dasharray:none;stroke-dashoffset:0"
       d="m 977.71597,765.22287 c 0,0 58.13883,181.7153 -43.04478,376.28873"
       id="path3088-4-1-9-1-1-2"
       sodipodi:nodetypes="cc" />
    <path
       sodipodi:type="arc"
       style="fill:#000000;fill-opacity:1;stroke:none"
       id="path3680-9-3-1"
       sodipodi:cx="-475.78186"
       sodipodi:cy="503.84937"
       sodipodi:rx="21.213203"
       sodipodi:ry="21.213203"
       d="m -454.56866,503.84937 a 21.213203,21.213203 0 1 1 -42.4264,0 21.213203,21.213203 0 1 1 42.4264,0 z"
       transform="translate(1013.0057,810.49456)" />
    <path
       sodipodi:type="arc"
       style="fill:#000000;fill-opacity:1;stroke:none"
       id="path3680-8-49-5-3"
       sodipodi:cx="-475.78186"
       sodipodi:cy="503.84937"
       sodipodi:rx="21.213203"
       sodipodi:ry="21.213203"
       d="m -454.56866,503.84937 a 21.213203,21.213203 0 1 1 -42.4264,0 21.213203,21.213203 0 1 1 42.4264,0 z"
       transform="translate(901.17624,813.21896)" />
    <path
       inkscape:connector-curvature="0"
       style="fill:#ffffff;fill-opacity:1;stroke:#000000;stroke-width:10.69999980999999956;stroke-linecap:butt;stroke-linejoin:miter;stroke-miterlimit:4;stroke-opacity:1;stroke-dasharray:none"
       d="m 748.67056,1212.4501 c -24.2437,21.2132 -41.9115,212.6696 -10.1015,242.4366 26.939,25.2089 203.5586,33.39 272.74114,-1.0101 24.7048,-12.2841 9.5827,-224.4115 -10.1015,-236.3757 -25.75324,-15.653 -224.25384,-21.2132 -252.53814,-5.0508 z"
       id="path2822-5-1-0-8"
       sodipodi:nodetypes="csssc" />
    <path
       inkscape:connector-curvature="0"
       style="fill:none;stroke:#000000;stroke-width:10;stroke-linecap:butt;stroke-linejoin:miter;stroke-miterlimit:4;stroke-opacity:1;stroke-dasharray:none"
       d="m 786.42676,1466.7912 -32.3249,52.5279"
       id="path3756-13-1-6"
       sodipodi:nodetypes="cc" />
    <path
       inkscape:connector-curvature="0"
       style="fill:none;stroke:#000000;stroke-width:9.9201107;stroke-linecap:butt;stroke-linejoin:miter;stroke-miterlimit:4;stroke-opacity:1;stroke-dasharray:none"
       d="m 960.03156,1468.7716 30.5874,54.628"
       id="path3756-1-8-3-1"
       sodipodi:nodetypes="cc" />
    <path
       inkscape:connector-curvature="0"
       style="fill:#e6e6e6;fill-opacity:1;stroke:#000000;stroke-width:9.18459797;stroke-linecap:butt;stroke-linejoin:miter;stroke-miterlimit:4;stroke-opacity:1;stroke-dasharray:none"
       d="m 734.49075,1254.5142 c 0,0 -13.78974,-53.2008 105.5998,-50.3009 -104.3383,-34.9202 -48.38431,-95.0242 -125.6029,-27.8297 -60.87331,66.4597 20.0031,78.1306 20.0031,78.1306 z"
       id="path4155-8-7-0"
       sodipodi:nodetypes="cccc" />
    <path
       sodipodi:type="arc"
       style="fill:none;stroke:#000000;stroke-width:4.9243145;stroke-miterlimit:4;stroke-opacity:1;stroke-dasharray:none"
       id="path3680-6-4-7-9-0"
       sodipodi:cx="-475.78186"
       sodipodi:cy="503.84937"
       sodipodi:rx="21.213203"
       sodipodi:ry="21.213203"
       d="m -454.56866,503.84937 a 21.213203,21.213203 0 1 1 -42.4264,0 21.213203,21.213203 0 1 1 42.4264,0 z"
       transform="matrix(-2.0345166,0,0,2.0269697,-189.90066,315.77237)" />
    <path
       sodipodi:type="arc"
       style="fill:#ffffff;stroke:#000000;stroke-width:4.92431450000000037;stroke-miterlimit:4;stroke-opacity:1;stroke-dasharray:none;fill-opacity:1"
       id="path3680-6-4-7-9-0-2"
       sodipodi:cx="-475.78186"
       sodipodi:cy="503.84937"
       sodipodi:rx="21.213203"
       sodipodi:ry="21.213203"
       d="m -454.56866,503.84937 a 21.213203,21.213203 0 1 1 -42.4264,0 21.213203,21.213203 0 1 1 42.4264,0 z"
       transform="matrix(-2.0345166,0,0,2.0269697,-97.782825,317.02408)" />
    <text
       xml:space="preserve"
       style="font-size:40px;font-style:normal;font-variant:normal;font-weight:normal;font-stretch:normal;fill:#000000;fill-opacity:1;stroke:none;font-family:Courier New;-inkscape-font-specification:Courier New"
       x="-283.64725"
       y="859.0434"
       id="text3898-5-0-1-5-1-78"><tspan
         sodipodi:role="line"
         x="-283.64725"
         y="859.0434"
         style="font-size:60px;font-style:normal;font-variant:normal;font-weight:normal;font-stretch:normal;font-family:Comic Sans MS;-inkscape-font-specification:Comic Sans MS"
         id="tspan4324-7-3">Still can't belive that </tspan><tspan
         sodipodi:role="line"
         x="-283.64725"
         y="934.0434"
         style="font-size:60px;font-style:normal;font-variant:normal;font-weight:normal;font-stretch:normal;font-family:Comic Sans MS;-inkscape-font-specification:Comic Sans MS"
         id="tspan5453">somebody tought its a good idea </tspan><tspan
         sodipodi:role="line"
         x="-283.64725"
         y="1009.0434"
         style="font-size:60px;font-style:normal;font-variant:normal;font-weight:normal;font-stretch:normal;font-family:Comic Sans MS;-inkscape-font-specification:Comic Sans MS"
         id="tspan5455">to hire a mathematican.</tspan></text>
    <path
       inkscape:connector-curvature="0"
       style="fill:none;stroke:#000000;stroke-width:8.10000038;stroke-linecap:round;stroke-linejoin:miter;stroke-miterlimit:4;stroke-opacity:1;stroke-dasharray:none;stroke-dashoffset:0"
       d="m -204.03489,1035.3708 c 0,0 -46.91706,146.022 21.60499,226.7862"
       id="path3088-4-1-9-1-1-6"
       sodipodi:nodetypes="cc" />
    <path
       inkscape:connector-curvature="0"
       style="fill:#e6e6e6;fill-opacity:1;stroke:#000000;stroke-width:9.18459797;stroke-linecap:butt;stroke-linejoin:miter;stroke-miterlimit:4;stroke-opacity:1;stroke-dasharray:none"
       d="m 1020.024,1325.2061 c 0,0 -14.7816,-98.9151 -134.17121,-96.0152 135.76681,-29.2059 85.52716,-117.8813 154.17431,-44.9726 60.8733,66.4597 -20.0031,140.9878 -20.0031,140.9878 z"
       id="path4155-8-7-0-3"
       sodipodi:nodetypes="cccc" />
  </g>
</svg>
