<?xml version="1.0" encoding="UTF-8" standalone="no"?>
<!-- Created with Inkscape (http://www.inkscape.org/) -->

<svg
   xmlns:dc="http://purl.org/dc/elements/1.1/"
   xmlns:cc="http://creativecommons.org/ns#"
   xmlns:rdf="http://www.w3.org/1999/02/22-rdf-syntax-ns#"
   xmlns:svg="http://www.w3.org/2000/svg"
   xmlns="http://www.w3.org/2000/svg"
   xmlns:sodipodi="http://sodipodi.sourceforge.net/DTD/sodipodi-0.dtd"
   xmlns:inkscape="http://www.inkscape.org/namespaces/inkscape"
   width="744.09448819"
   height="1052.3622047"
   id="svg4536"
   version="1.1"
   inkscape:version="0.48.3.1 r9886"
   sodipodi:docname="yourcodestinks-009-obfuscatedcode.svg"
   inkscape:export-filename="/home/yals/Desktop/yourcodestinks/yourcodestinks-009-obfuscatedcode.png"
   inkscape:export-xdpi="44.979889"
   inkscape:export-ydpi="44.979889">
  <defs
     id="defs4538" />
  <sodipodi:namedview
     id="base"
     pagecolor="#ffffff"
     bordercolor="#666666"
     borderopacity="1.0"
     inkscape:pageopacity="0.0"
     inkscape:pageshadow="2"
     inkscape:zoom="0.24748737"
     inkscape:cx="383.08122"
     inkscape:cy="513.93908"
     inkscape:document-units="px"
     inkscape:current-layer="layer1"
     showgrid="false"
     inkscape:window-width="1244"
     inkscape:window-height="778"
     inkscape:window-x="0"
     inkscape:window-y="0"
     inkscape:window-maximized="1" />
  <metadata
     id="metadata4541">
    <rdf:RDF>
      <cc:Work
         rdf:about="">
        <dc:format>image/svg+xml</dc:format>
        <dc:type
           rdf:resource="http://purl.org/dc/dcmitype/StillImage" />
        <dc:title></dc:title>
      </cc:Work>
    </rdf:RDF>
  </metadata>
  <g
     inkscape:label="Layer 1"
     inkscape:groupmode="layer"
     id="layer1">
    <rect
       style="fill:#ffffff;fill-opacity:1;stroke:#a57553;stroke-width:0;stroke-linecap:round;stroke-linejoin:round;stroke-miterlimit:4;stroke-opacity:1;stroke-dasharray:none;stroke-dashoffset:0"
       id="rect3050"
       width="1478.8632"
       height="2335.4729"
       x="-367.69553"
       y="-636.61292" />
    <rect
       style="fill:#ffffff;fill-opacity:1;stroke:#000000;stroke-width:9.13505077;stroke-linecap:round;stroke-linejoin:round;stroke-miterlimit:4;stroke-opacity:1;stroke-dasharray:none"
       id="rect5187-8-6-7-7-6"
       width="1389.4364"
       height="959.73077"
       x="-319.69769"
       y="696.47528" />
    <rect
       style="fill:#ffffff;fill-opacity:1;stroke:#000000;stroke-width:9.13505077;stroke-linecap:round;stroke-linejoin:round;stroke-miterlimit:4;stroke-opacity:1;stroke-dasharray:none"
       id="rect5187-8-6-7-7"
       width="1389.4364"
       height="1129.4364"
       x="-319.73871"
       y="-466.88556" />
    <path
       inkscape:connector-curvature="0"
       style="fill:#fffcfc;fill-opacity:1;stroke:#000000;stroke-width:10.4811945;stroke-linecap:butt;stroke-linejoin:miter;stroke-miterlimit:4;stroke-opacity:1;stroke-dasharray:none"
       d="m 171.07625,327.67518 c 23.2476,21.2266 40.1894,212.80428 9.6864,242.59008 -25.8321,25.2249 -195.194804,33.4112 -261.534704,-1.0107 -23.689696,-12.2919 -9.189,-224.55368 9.6864,-236.52538 24.6951,-15.663 215.039704,-21.2267 242.161904,-5.054 z"
       id="path2822-5-1-6-4-4-6-2"
       sodipodi:nodetypes="csssc" />
    <path
       inkscape:connector-curvature="0"
       style="fill:none;stroke:#000000;stroke-width:9.79550934;stroke-linecap:butt;stroke-linejoin:miter;stroke-miterlimit:4;stroke-opacity:1;stroke-dasharray:none"
       d="m 134.87135,582.17736 30.9967,52.5612"
       id="path3756-13-6-8-8-3-3"
       sodipodi:nodetypes="cc" />
    <path
       inkscape:connector-curvature="0"
       style="fill:none;stroke:#000000;stroke-width:9.71725368;stroke-linecap:butt;stroke-linejoin:miter;stroke-miterlimit:4;stroke-opacity:1;stroke-dasharray:none"
       d="m -31.600354,584.15896 -29.3307,54.6627"
       id="path3756-1-8-4-7-7-9-6"
       sodipodi:nodetypes="cc" />
    <path
       sodipodi:type="arc"
       style="fill:#000000;fill-opacity:1;stroke:none"
       id="path3598-4-7-9-1-1-4-5"
       sodipodi:cx="19.192898"
       sodipodi:cy="425.05746"
       sodipodi:rx="38.385796"
       sodipodi:ry="18.182745"
       d="m 57.578693,425.05746 a 38.385796,18.182745 0 1 1 -76.771591,0 38.385796,18.182745 0 1 1 76.771591,0 z"
       transform="matrix(0.90675642,0.42188431,0.3962868,-0.87380997,-36.256654,804.00576)" />
    <path
       inkscape:connector-curvature="0"
       style="fill:none;stroke:#000000;stroke-width:8.10000038;stroke-linecap:round;stroke-linejoin:miter;stroke-miterlimit:4;stroke-opacity:1;stroke-dasharray:none;stroke-dashoffset:0"
       d="m 901.90227,-28.381717 c 0,0 74.3013,101.5752 -39.0041,259.111097"
       id="path3088-4-1-9-1"
       sodipodi:nodetypes="cc" />
    <text
       xml:space="preserve"
       style="font-size:40px;font-style:normal;font-variant:normal;font-weight:normal;font-stretch:normal;fill:#000000;fill-opacity:1;stroke:none;font-family:Courier New;-inkscape-font-specification:Courier New"
       x="-272.21234"
       y="-378.95758"
       id="text3898-5-0-1"><tspan
         sodipodi:role="line"
         x="-272.21234"
         y="-378.95758"
         style="font-size:60px;font-style:normal;font-variant:normal;font-weight:normal;font-stretch:normal;font-family:Comic Sans MS;-inkscape-font-specification:Comic Sans MS"
         id="tspan4186">Do you know what whould happen, if I took a </tspan><tspan
         sodipodi:role="line"
         x="-272.21234"
         y="-303.95758"
         style="font-size:60px;font-style:normal;font-variant:normal;font-weight:normal;font-stretch:normal;font-family:Comic Sans MS;-inkscape-font-specification:Comic Sans MS"
         id="tspan4180">random piece from our codebase, and I put </tspan><tspan
         sodipodi:role="line"
         x="-272.21234"
         y="-228.95758"
         style="font-size:60px;font-style:normal;font-variant:normal;font-weight:normal;font-stretch:normal;font-family:Comic Sans MS;-inkscape-font-specification:Comic Sans MS"
         id="tspan4188">the problem what its solves up on an </tspan><tspan
         sodipodi:role="line"
         x="-272.21234"
         y="-153.95758"
         style="font-size:60px;font-style:normal;font-variant:normal;font-weight:normal;font-stretch:normal;font-family:Comic Sans MS;-inkscape-font-specification:Comic Sans MS"
         id="tspan4328">obfuscated code contest?</tspan><tspan
         sodipodi:role="line"
         x="-272.21234"
         y="-78.957581"
         style="font-size:60px;font-style:normal;font-variant:normal;font-weight:normal;font-stretch:normal;font-family:Comic Sans MS;-inkscape-font-specification:Comic Sans MS"
         id="tspan4182" /><tspan
         sodipodi:role="line"
         x="-272.21234"
         y="-3.9575806"
         style="font-size:60px;font-style:normal;font-variant:normal;font-weight:normal;font-stretch:normal;font-family:Comic Sans MS;-inkscape-font-specification:Comic Sans MS"
         id="tspan4192" /><tspan
         sodipodi:role="line"
         x="-272.21234"
         y="71.042419"
         style="font-size:60px;font-style:normal;font-variant:normal;font-weight:normal;font-stretch:normal;font-family:Comic Sans MS;-inkscape-font-specification:Comic Sans MS"
         id="tspan4184" /></text>
    <path
       inkscape:connector-curvature="0"
       style="fill:none;stroke:#000000;stroke-width:10;stroke-linecap:round;stroke-linejoin:miter;stroke-miterlimit:4;stroke-opacity:1;stroke-dasharray:none"
       d="m -14.585754,286.41208 c 0,0 -110.170796,-95.9003 -116.948896,-400.5652"
       id="path3088-4-2-0-5-3"
       sodipodi:nodetypes="cc" />
    <path
       inkscape:connector-curvature="0"
       style="fill:#fffcfc;fill-opacity:1;stroke:#000000;stroke-width:10.69999981;stroke-linecap:butt;stroke-linejoin:miter;stroke-miterlimit:4;stroke-opacity:1;stroke-dasharray:none"
       d="m 383.90535,336.45748 c -24.2437,21.2132 -41.9115,212.66958 -10.1015,242.43658 26.939,25.2089 203.5586,33.39 272.7411,-1.0101 24.7048,-12.2841 9.5827,-224.41148 -10.1015,-236.37568 -25.7532,-15.653 -224.2538,-21.2132 -252.5381,-5.0508 z"
       id="path2822-5-1-0"
       sodipodi:nodetypes="csssc" />
    <path
       inkscape:connector-curvature="0"
       style="fill:none;stroke:#000000;stroke-width:10;stroke-linecap:butt;stroke-linejoin:miter;stroke-miterlimit:4;stroke-opacity:1;stroke-dasharray:none"
       d="m 421.66155,590.79856 -32.3249,52.5279"
       id="path3756-13-1"
       sodipodi:nodetypes="cc" />
    <path
       inkscape:connector-curvature="0"
       style="fill:none;stroke:#000000;stroke-width:9.9201107;stroke-linecap:butt;stroke-linejoin:miter;stroke-miterlimit:4;stroke-opacity:1;stroke-dasharray:none"
       d="m 595.26635,592.77896 30.5874,54.628"
       id="path3756-1-8-3"
       sodipodi:nodetypes="cc" />
    <path
       inkscape:connector-curvature="0"
       style="fill:#f8f30a;fill-opacity:1;stroke:#000000;stroke-width:9.18459797;stroke-linecap:butt;stroke-linejoin:miter;stroke-miterlimit:4;stroke-opacity:1;stroke-dasharray:none"
       d="m 369.76615,392.48098 c 0,0 96.1682,-117.2414 232.7006,-5.7701 78.94082,64.45088 41.3915,-44.35 25.2014,-67.0251 -16.1902,-22.6754 -216.76,-26.2778 -237.9051,-2.4783 -21.1451,23.7994 -19.9969,75.2735 -19.9969,75.2735 z"
       id="path4155-8-7"
       sodipodi:nodetypes="cszzc" />
    <path
       inkscape:connector-curvature="0"
       style="fill:#000000;fill-opacity:1;stroke:#000000;stroke-width:9.18459892;stroke-linecap:butt;stroke-linejoin:miter;stroke-miterlimit:4;stroke-opacity:1;stroke-dasharray:none"
       d="m 183.94845,374.14558 c 0,0 -204.317204,-55.5428 -246.917104,111.89198 -38.672496,151.999 -33.4766,-114.50528 -11.4456,-149.54028 22.031,-35.035 218.295004,-31.1243 238.887904,-14.6036 20.5931,16.5206 19.4748,52.2519 19.4748,52.2519 z"
       id="path4155-8-0-6"
       sodipodi:nodetypes="cszzc" />
    <text
       xml:space="preserve"
       style="font-size:40px;font-style:normal;font-variant:normal;font-weight:normal;font-stretch:normal;fill:#000000;fill-opacity:1;stroke:none;font-family:Courier New;-inkscape-font-specification:Courier New"
       x="-129.82416"
       y="803.49579"
       id="text3898-5-0-1-5"><tspan
         sodipodi:role="line"
         x="-129.82416"
         y="803.49579"
         style="font-size:60px;font-style:normal;font-variant:normal;font-weight:normal;font-stretch:normal;font-family:Comic Sans MS;-inkscape-font-specification:Comic Sans MS"
         id="tspan4184-5">None of the submissions could beat </tspan><tspan
         sodipodi:role="line"
         x="-129.82416"
         y="878.49579"
         style="font-size:60px;font-style:normal;font-variant:normal;font-weight:normal;font-stretch:normal;font-family:Comic Sans MS;-inkscape-font-specification:Comic Sans MS"
         id="tspan4324">the original implementation.</tspan></text>
    <text
       xml:space="preserve"
       style="font-size:40px;font-style:normal;font-variant:normal;font-weight:normal;font-stretch:normal;fill:#000000;fill-opacity:1;stroke:none;font-family:Courier New;-inkscape-font-specification:Courier New"
       x="771.65143"
       y="-61.989361"
       id="text3898-5-0-1-5-1"><tspan
         sodipodi:role="line"
         x="771.65143"
         y="-61.989361"
         style="font-size:60px;font-style:normal;font-variant:normal;font-weight:normal;font-stretch:normal;font-family:Comic Sans MS;-inkscape-font-specification:Comic Sans MS"
         id="tspan4324-7">What?</tspan></text>
    <text
       xml:space="preserve"
       style="font-size:110px;font-style:normal;font-variant:normal;font-weight:normal;font-stretch:normal;fill:#000000;fill-opacity:1;stroke:none;font-family:Bored;-inkscape-font-specification:Bored"
       x="-246.13373"
       y="-504.63922"
       id="text4179-9-9-9-9"><tspan
         sodipodi:role="line"
         id="tspan4181-3-6-1-7"
         x="-246.13373"
         y="-504.63922"
         style="font-style:normal;font-variant:normal;font-weight:normal;font-stretch:normal;font-family:Purisa;-inkscape-font-specification:Purisa">YOUR CODE STINKS</tspan></text>
    <path
       inkscape:connector-curvature="0"
       style="fill:#fffcfc;fill-opacity:1;stroke:#000000;stroke-width:10.69999981;stroke-linecap:butt;stroke-linejoin:miter;stroke-miterlimit:4;stroke-opacity:1;stroke-dasharray:none"
       d="m 147.74915,1284.5252 c 23.4904,21.2132 40.6092,212.6696 9.7877,242.4366 -26.102,25.2089 -197.233204,33.39 -264.266,-1.0101 -23.9371,-12.2841 -9.2849,-224.4115 9.787596,-236.3757 24.953,-15.653 217.285304,-21.2132 244.690704,-5.0508 z"
       id="path2822-5-1-8"
       sodipodi:nodetypes="csssc" />
    <path
       inkscape:connector-curvature="0"
       style="fill:none;stroke:#000000;stroke-width:10;stroke-linecap:butt;stroke-linejoin:miter;stroke-miterlimit:4;stroke-opacity:1;stroke-dasharray:none"
       d="m 111.16635,1538.8663 31.3203,52.5279"
       id="path3756-13-9"
       sodipodi:nodetypes="cc" />
    <path
       inkscape:connector-curvature="0"
       style="fill:none;stroke:#000000;stroke-width:9.9201107;stroke-linecap:butt;stroke-linejoin:miter;stroke-miterlimit:4;stroke-opacity:1;stroke-dasharray:none"
       d="m -57.043954,1540.8467 -29.6369,54.628"
       id="path3756-1-8-8"
       sodipodi:nodetypes="cc" />
    <path
       sodipodi:type="arc"
       style="fill:#000000;fill-opacity:1;stroke:none"
       id="path3598-4-7-94"
       sodipodi:cx="19.192898"
       sodipodi:cy="425.05746"
       sodipodi:rx="38.385796"
       sodipodi:ry="18.182745"
       d="m 57.578693,425.05746 a 38.385796,18.182745 0 1 1 -76.771591,0 38.385796,18.182745 0 1 1 76.771591,0 z"
       transform="matrix(-0.9022835,0.35826468,0.29962898,0.95488781,14.877046,955.90246)" />
    <path
       transform="matrix(-0.91126257,-0.33096367,-0.27448104,0.96358916,114.22225,963.41196)"
       sodipodi:type="arc"
       style="fill:#000000;fill-opacity:1;stroke:none"
       id="path3598-6-9-8-50"
       sodipodi:cx="19.192898"
       sodipodi:cy="425.05746"
       sodipodi:rx="38.385796"
       sodipodi:ry="18.182745"
       d="m 57.578693,425.05746 a 38.385796,18.182745 0 1 1 -76.771591,0 38.385796,18.182745 0 1 1 76.771591,0 z" />
    <path
       inkscape:connector-curvature="0"
       style="fill:#000000;fill-opacity:1;stroke:#000000;stroke-width:9.18459797;stroke-linecap:butt;stroke-linejoin:miter;stroke-miterlimit:4;stroke-opacity:1;stroke-dasharray:none"
       d="m 159.51115,1340.5487 c 0,0 -79.477004,-102.4207 -223.512104,-13.8223 -74.917596,46.0828 -38.147696,-22.3715 -22.4608,-38.1117 15.6872,-15.7404 206.109404,-16.8386 226.597504,-0.3179 20.488,16.5206 19.3754,52.2519 19.3754,52.2519 z"
       id="path4155-8-08"
       sodipodi:nodetypes="cszzc" />
    <path
       inkscape:connector-curvature="0"
       style="fill:none;stroke:#000000;stroke-width:10;stroke-linecap:round;stroke-linejoin:miter;stroke-miterlimit:4;stroke-opacity:1;stroke-dasharray:none"
       d="m -59.500154,1223.0799 c 0,0 -69.764696,-23.1693 -28.0554,-299.54994"
       id="path3088-4-2-0-5-3-5"
       sodipodi:nodetypes="cc" />
    <path
       inkscape:connector-curvature="0"
       style="fill:#fffcfc;fill-opacity:1;stroke:#000000;stroke-width:10;stroke-linecap:butt;stroke-linejoin:miter;stroke-miterlimit:4;stroke-opacity:1;stroke-dasharray:none"
       d="m 715.79747,316.38568 c 19.1196,-38.3901 297.47493,-53.3087 314.41203,-35.0786 26.1885,28.188 -122.86733,255.58628 -149.71993,259.58108 -26.8528,3.9947 -183.8114,-186.11248 -164.6921,-224.50248 z"
       id="path3678-8-2"
       sodipodi:nodetypes="cszz" />
    <path
       inkscape:connector-curvature="0"
       style="fill:#fffcfc;fill-opacity:1;stroke:#000000;stroke-width:10;stroke-linecap:butt;stroke-linejoin:miter;stroke-miterlimit:4;stroke-opacity:1;stroke-dasharray:none"
       d="m 834.27057,550.22966 c 3.3854,-10.3785 52.673,-14.4117 55.6719,-9.4832 4.6371,7.6204 -21.7557,69.0958 -26.5104,70.1757 -4.7547,1.08 -32.5469,-50.3141 -29.1615,-60.6925 z"
       id="path3678-7-9-3"
       sodipodi:nodetypes="cszz" />
    <path
       inkscape:connector-curvature="0"
       style="fill:none;stroke:#000000;stroke-width:10.10000038;stroke-linecap:butt;stroke-linejoin:miter;stroke-miterlimit:4;stroke-opacity:1;stroke-dasharray:none"
       d="m 845.55477,660.15506 10.8198,-58.4642 8.1149,14.0315 6.7624,-11.693 14.8772,56.1257"
       id="path3754-3-1" />
    <path
       inkscape:connector-curvature="0"
       style="fill:#000000;fill-opacity:1;stroke:#000000;stroke-width:12.20980167;stroke-linecap:butt;stroke-linejoin:round;stroke-miterlimit:4;stroke-opacity:1;stroke-dasharray:none"
       d="m 734.59467,301.10958 c 0,0 233.6674,-33.248 274.15353,-21.2705 40.4861,11.9777 9.9865,53.6801 9.9865,53.6801 0,0 -134.00583,-38.2962 -284.13993,-32.4096 z"
       id="path4131-9-4"
       sodipodi:nodetypes="cscc" />
    <path
       inkscape:connector-curvature="0"
       style="fill:none;stroke:#000000;stroke-width:8.10000038;stroke-linecap:round;stroke-linejoin:miter;stroke-miterlimit:4;stroke-opacity:1;stroke-dasharray:none;stroke-dashoffset:0"
       d="m 861.17247,-21.621317 c 0,0 -103.4856,222.793497 -297.60322,279.314097"
       id="path3088-4-1-9-1-1"
       sodipodi:nodetypes="cc" />
    <path
       inkscape:connector-curvature="0"
       style="fill:#fffcfc;fill-opacity:1;stroke:#000000;stroke-width:10.69999981;stroke-linecap:butt;stroke-linejoin:miter;stroke-miterlimit:4;stroke-opacity:1;stroke-dasharray:none"
       d="m 375.23785,1304.8428 c -24.2437,21.2132 -41.9115,212.6696 -10.1015,242.4366 26.939,25.2089 203.5586,33.39 272.7411,-1.0101 24.7048,-12.2841 9.5827,-224.4115 -10.1015,-236.3757 -25.7532,-15.653 -224.2538,-21.2132 -252.5381,-5.0508 z"
       id="path2822-5-1-0-4"
       sodipodi:nodetypes="csssc" />
    <path
       inkscape:connector-curvature="0"
       style="fill:none;stroke:#000000;stroke-width:10;stroke-linecap:butt;stroke-linejoin:miter;stroke-miterlimit:4;stroke-opacity:1;stroke-dasharray:none"
       d="m 412.99405,1559.1839 -32.3249,52.5279"
       id="path3756-13-1-9"
       sodipodi:nodetypes="cc" />
    <path
       inkscape:connector-curvature="0"
       style="fill:none;stroke:#000000;stroke-width:9.9201107;stroke-linecap:butt;stroke-linejoin:miter;stroke-miterlimit:4;stroke-opacity:1;stroke-dasharray:none"
       d="m 586.59885,1561.1643 30.5874,54.628"
       id="path3756-1-8-3-3"
       sodipodi:nodetypes="cc" />
    <path
       sodipodi:type="arc"
       style="fill:#000000;fill-opacity:1;stroke:none"
       id="path3598-4-7-0-2"
       sodipodi:cx="19.192898"
       sodipodi:cy="425.05746"
       sodipodi:rx="38.385796"
       sodipodi:ry="18.182745"
       d="m 57.578693,425.05746 a 38.385796,18.182745 0 1 1 -76.771591,0 38.385796,18.182745 0 1 1 76.771591,0 z"
       transform="matrix(0.90055431,-0.43474354,0.43474354,0.90055431,196.72475,1014.5351)" />
    <path
       transform="matrix(0.89992988,0.43603465,-0.43603465,0.89992988,716.37007,996.06746)"
       sodipodi:type="arc"
       style="fill:#000000;fill-opacity:1;stroke:none"
       id="path3598-6-9-8-5-0"
       sodipodi:cx="19.192898"
       sodipodi:cy="425.05746"
       sodipodi:rx="38.385796"
       sodipodi:ry="18.182745"
       d="m 57.578693,425.05746 a 38.385796,18.182745 0 1 1 -76.771591,0 38.385796,18.182745 0 1 1 76.771591,0 z" />
    <path
       inkscape:connector-curvature="0"
       style="fill:#f8f30a;fill-opacity:1;stroke:#000000;stroke-width:9.18459797;stroke-linecap:butt;stroke-linejoin:miter;stroke-miterlimit:4;stroke-opacity:1;stroke-dasharray:none"
       d="m 361.09865,1360.8663 c 0,0 96.1682,-117.2414 232.7006,-5.7701 78.9408,64.4509 41.3915,-44.35 25.2014,-67.0251 -16.1902,-22.6754 -216.76,-26.2778 -237.9051,-2.4783 -21.1451,23.7994 -19.9969,75.2735 -19.9969,75.2735 z"
       id="path4155-8-7-7"
       sodipodi:nodetypes="cszzc" />
    <path
       inkscape:connector-curvature="0"
       style="fill:#fffcfc;fill-opacity:1;stroke:#000000;stroke-width:10;stroke-linecap:butt;stroke-linejoin:miter;stroke-miterlimit:4;stroke-opacity:1;stroke-dasharray:none"
       d="m 1016.8688,1293.3424 c -17.43783,-38.3901 -271.30793,-53.3087 -286.75523,-35.0786 -23.8849,28.188 112.0594,255.5863 136.55,259.5811 24.4908,3.9947 167.64273,-186.1125 150.20523,-224.5025 z"
       id="path3678-8-2-0"
       sodipodi:nodetypes="cszz" />
    <path
       sodipodi:type="arc"
       style="fill:#000000;fill-opacity:1;stroke:none"
       id="path3680-8-4-6-2"
       sodipodi:cx="-475.78186"
       sodipodi:cy="503.84937"
       sodipodi:rx="21.213203"
       sodipodi:ry="21.213203"
       d="m -454.56866,503.84937 a 21.213203,21.213203 0 1 1 -42.4264,0 21.213203,21.213203 0 1 1 42.4264,0 z"
       transform="matrix(0.00268334,0.86760523,1.4178185,0.03325117,192.80205,1740.8897)"
       inkscape:transform-center-x="-29.646088"
       inkscape:transform-center-y="4.4581433" />
    <path
       inkscape:connector-curvature="0"
       style="fill:#fffcfc;fill-opacity:1;stroke:#000000;stroke-width:10;stroke-linecap:butt;stroke-linejoin:miter;stroke-miterlimit:4;stroke-opacity:1;stroke-dasharray:none"
       d="m 908.81697,1527.1864 c -4.9708,-10.3785 -77.3387,-14.4117 -81.7419,-9.4832 -6.8086,7.6204 31.9435,69.0958 38.9247,70.1757 6.9812,1.08 47.7879,-50.3141 42.8172,-60.6925 z"
       id="path3678-7-9-3-9"
       sodipodi:nodetypes="cszz" />
    <path
       inkscape:connector-curvature="0"
       style="fill:none;stroke:#000000;stroke-width:10.10000038;stroke-linecap:butt;stroke-linejoin:miter;stroke-miterlimit:4;stroke-opacity:1;stroke-dasharray:none"
       d="m 898.52527,1637.1118 -18.2066,-58.4642 -13.6551,14.0315 -11.3791,-11.693 -25.0342,56.1257"
       id="path3754-3-1-0" />
    <path
       inkscape:connector-curvature="0"
       style="fill:#000000;fill-opacity:1;stroke:#000000;stroke-width:12.20980072;stroke-linecap:butt;stroke-linejoin:round;stroke-miterlimit:4;stroke-opacity:1;stroke-dasharray:none"
       d="m 739.52167,1254.8762 c 0,0 225.2744,12.4607 261.18783,31.1516 35.9132,18.691 -0.059,51.8862 -0.059,51.8862 0,0 -119.10743,-60.6084 -261.12803,-83.0378 z"
       id="path4131-9-4-8"
       sodipodi:nodetypes="cscc" />
    <path
       sodipodi:type="arc"
       style="fill:#000000;fill-opacity:1;stroke:none"
       id="path3680-8-4-3-5-5"
       sodipodi:cx="-475.78186"
       sodipodi:cy="503.84937"
       sodipodi:rx="21.213203"
       sodipodi:ry="21.213203"
       d="m -454.56866,503.84937 a 21.213203,21.213203 0 1 1 -42.4264,0 21.213203,21.213203 0 1 1 42.4264,0 z"
       transform="matrix(0.87100359,0.03016238,0.01073517,-1.4118126,1236.5129,2071.3184)"
       inkscape:transform-center-x="-48.66948"
       inkscape:transform-center-y="-68.240785" />
    <path
       sodipodi:type="arc"
       style="fill:#000000;fill-opacity:1;stroke:none"
       id="path3680-9"
       sodipodi:cx="-475.78186"
       sodipodi:cy="503.84937"
       sodipodi:rx="21.213203"
       sodipodi:ry="21.213203"
       d="m -454.56866,503.84937 a 21.213203,21.213203 0 1 1 -42.4264,0 21.213203,21.213203 0 1 1 42.4264,0 z"
       transform="translate(1268.887,-120.59052)" />
    <path
       sodipodi:type="arc"
       style="fill:#000000;fill-opacity:1;stroke:none"
       id="path3680-8-49"
       sodipodi:cx="-475.78186"
       sodipodi:cy="503.84937"
       sodipodi:rx="21.213203"
       sodipodi:ry="21.213203"
       d="m -454.56866,503.84937 a 21.213203,21.213203 0 1 1 -42.4264,0 21.213203,21.213203 0 1 1 42.4264,0 z"
       transform="translate(1328.486,-123.58042)" />
    <path
       sodipodi:type="arc"
       style="fill:#000000;fill-opacity:1;stroke:none"
       id="path3680-9-3"
       sodipodi:cx="-475.78186"
       sodipodi:cy="503.84937"
       sodipodi:rx="21.213203"
       sodipodi:ry="21.213203"
       d="m -454.56866,503.84937 a 21.213203,21.213203 0 1 1 -42.4264,0 21.213203,21.213203 0 1 1 42.4264,0 z"
       transform="translate(1006.1679,-84.217717)" />
    <path
       sodipodi:type="arc"
       style="fill:#000000;fill-opacity:1;stroke:none"
       id="path3680-8-49-5"
       sodipodi:cx="-475.78186"
       sodipodi:cy="503.84937"
       sodipodi:rx="21.213203"
       sodipodi:ry="21.213203"
       d="m -454.56866,503.84937 a 21.213203,21.213203 0 1 1 -42.4264,0 21.213203,21.213203 0 1 1 42.4264,0 z"
       transform="translate(894.33837,-81.493317)" />
  </g>
</svg>
